<?xml version="1.0" encoding="UTF-8" standalone="no"?>
<!-- Created with Inkscape (http://www.inkscape.org/) -->

<svg
   xmlns:dc="http://purl.org/dc/elements/1.1/"
   xmlns:cc="http://creativecommons.org/ns#"
   xmlns:rdf="http://www.w3.org/1999/02/22-rdf-syntax-ns#"
   xmlns:svg="http://www.w3.org/2000/svg"
   xmlns="http://www.w3.org/2000/svg"
   version="1.1"
   width="1024"
   height="512"
   id="svg2">
  <metadata
     id="metadata8">
    <rdf:RDF>
      <cc:Work
         rdf:about="">
        <dc:format>image/svg+xml</dc:format>
        <dc:type
           rdf:resource="http://purl.org/dc/dcmitype/StillImage" />
        <dc:title></dc:title>
      </cc:Work>
    </rdf:RDF>
  </metadata>
  <defs
     id="defs6" />
  <path
     d="m 933.51996,81.269959 a 26.100878,26.100878 0 1 1 -52.20174,0 26.100878,26.100878 0 1 1 52.20174,0 z"
     id="gps196.widget.button.out"
     style="fill:none;fill-opacity:0.40201015;stroke:none" />
  <path
     d="m 934.03176,147.28984 a 26.100878,26.100878 0 1 1 -52.20174,0 26.100878,26.100878 0 1 1 52.20174,0 z"
     id="gps196.widget.button.in"
     style="fill:none;fill-opacity:0.40201015;stroke:none" />
  <path
     d="m 876.7122,449.24116 a 26.10088,26.10088 0 0 1 -52.20176,0 26.10088,26.10088 0 1 1 52.20176,0 z"
     id="gps196.widget.button.dto"
     style="fill:none;fill-opacity:0.40201015;stroke:none" />
  <path
     d="m 791.75638,448.72938 a 29.683352,29.683352 0 1 1 -59.3667,0 29.683352,29.683352 0 1 1 59.3667,0 z"
     id="gps196.widget.button.power"
     style="fill:none;fill-opacity:0.40201015;stroke:none" />
  <path
     d="m 844.98168,136.03064 a 33.265824,33.265824 0 1 1 -66.53164,0 33.265824,33.265824 0 1 1 66.53164,0 z"
     id="gps196.widget.button.page"
     style="fill:none;fill-opacity:0.40201015;stroke:none" />
  <path
     d="m 793.80348,213.8215 a 33.265824,33.265824 0 1 1 -66.53164,0 33.265824,33.265824 0 1 1 66.53164,0 z"
     id="gps196.widget.button.quit"
     style="fill:none;fill-opacity:0.40201015;stroke:none" />
  <path
     d="m 792.77994,301.848 a 33.265824,33.265824 0 1 1 -66.53164,0 33.265824,33.265824 0 1 1 66.53164,0 z"
     id="gps196.widget.button.enter"
     style="fill:none;fill-opacity:0.40201015;stroke:none" />
  <path
     d="m 844.9817,379.63882 a 33.265824,33.265824 0 1 1 -66.53164,0 33.265824,33.265824 0 1 1 66.53164,0 z"
     id="gps196.widget.button.menu"
     style="fill:none;fill-opacity:0.40201015;stroke:none" />
  <path
     d="m 949.38522,394.99228 a 33.265824,33.265824 0 1 1 -66.53164,0 33.265824,33.265824 0 1 1 66.53164,0 z"
     id="gps196.widget.button.nrst"
     style="fill:none;fill-opacity:0.40201015;stroke:none" />
  <rect
     width="46.64407"
     height="56.045197"
     x="804.16229"
     y="230.62289"
     id="gps196.widget.rocker.left"
     style="fill:none;fill-opacity:0.40201015;stroke:none" />
  <rect
     width="41.943504"
     height="56.045197"
     x="196.27261"
     y="-907.39392"
     transform="matrix(0,1,-1,0,0,0)"
     id="gps196.widget.rocker.up"
     style="fill:none;fill-opacity:0.40201015;stroke:none" />
  <rect
     width="41.943504"
     height="56.045197"
     x="279.07486"
     y="-907.39398"
     transform="matrix(0,1,-1,0,0,0)"
     id="gps196.widget.rocker.down"
     style="fill:none;fill-opacity:0.40201015;stroke:none" />
  <rect
     width="48.81356"
     height="56.045197"
     x="907.57477"
     y="230.80368"
     id="gps196.widget.rocker.right"
     style="fill:none;fill-opacity:0.40201015;stroke:none" />
</svg>
