<?xml version="1.0" encoding="UTF-8" standalone="no"?>
<!-- Created with Inkscape (http://www.inkscape.org/) -->

<svg
   xmlns:dc="http://purl.org/dc/elements/1.1/"
   xmlns:cc="http://creativecommons.org/ns#"
   xmlns:rdf="http://www.w3.org/1999/02/22-rdf-syntax-ns#"
   xmlns:svg="http://www.w3.org/2000/svg"
   xmlns="http://www.w3.org/2000/svg"
   xmlns:xlink="http://www.w3.org/1999/xlink"
   xmlns:sodipodi="http://sodipodi.sourceforge.net/DTD/sodipodi-0.dtd"
   xmlns:inkscape="http://www.inkscape.org/namespaces/inkscape"
   version="1.0"
   width="100%"
   height="100%"
   id="svg4014"
   sodipodi:version="0.32"
   inkscape:version="0.48.4 r9939"
   sodipodi:docname="HSI.svg"
   preserveAspectRatio="xMinYMin meet"
   viewBox="0 0 600 575">
  <metadata
     id="metadata3107">
    <rdf:RDF>
      <cc:Work
         rdf:about="">
        <dc:format>image/svg+xml</dc:format>
        <dc:type
           rdf:resource="http://purl.org/dc/dcmitype/StillImage" />
      </cc:Work>
    </rdf:RDF>
  </metadata>
  <sodipodi:namedview
     inkscape:window-height="1177"
     inkscape:window-width="1920"
     inkscape:pageshadow="2"
     inkscape:pageopacity="0.0"
     guidetolerance="10.0"
     gridtolerance="10.0"
     objecttolerance="10.0"
     borderopacity="1.0"
     bordercolor="#666666"
     pagecolor="#ffffff"
     id="base"
     showgrid="false"
     inkscape:zoom="1.7426087"
     inkscape:cx="224.82535"
     inkscape:cy="287.5"
     inkscape:current-layer="Chassis"
     showguides="true"
     inkscape:guide-bbox="true"
     inkscape:window-x="1920"
     inkscape:window-y="0"
     inkscape:window-maximized="1" />
  <defs
     id="defs4016">
    <inkscape:perspective
       sodipodi:type="inkscape:persp3d"
       inkscape:vp_x="0 : 402.07468 : 1"
       inkscape:vp_y="0 : 1000 : 0"
       inkscape:vp_z="1011.7799 : 402.07468 : 1"
       inkscape:persp3d-origin="505.88995 : 268.04978 : 1"
       id="perspective3109" />
    <linearGradient
       id="linearGradient4117">
      <stop
         id="stop4119"
         style="stop-color:#676767;stop-opacity:1"
         offset="0" />
      <stop
         id="stop4121"
         style="stop-color:#373737;stop-opacity:1"
         offset="1" />
    </linearGradient>
    <linearGradient
       id="linearGradient4050">
      <stop
         id="stop4052"
         style="stop-color:#a3a3a3;stop-opacity:1"
         offset="0" />
      <stop
         id="stop4054"
         style="stop-color:#515151;stop-opacity:1"
         offset="1" />
    </linearGradient>
    <linearGradient
       id="linearGradient5892">
      <stop
         id="stop5894"
         style="stop-color:#747474;stop-opacity:1"
         offset="0" />
      <stop
         id="stop5896"
         style="stop-color:#595959;stop-opacity:1"
         offset="1" />
    </linearGradient>
    <linearGradient
       id="linearGradient5863">
      <stop
         id="stop5865"
         style="stop-color:#747474;stop-opacity:1"
         offset="0" />
      <stop
         id="stop5867"
         style="stop-color:#4c4c4c;stop-opacity:1"
         offset="1" />
    </linearGradient>
    <linearGradient
       id="linearGradient5848">
      <stop
         id="stop5850"
         style="stop-color:#9f9f9f;stop-opacity:1"
         offset="0" />
      <stop
         id="stop5852"
         style="stop-color:#555555;stop-opacity:1"
         offset="1" />
    </linearGradient>
    <linearGradient
       id="linearGradient5757">
      <stop
         id="stop5759"
         style="stop-color:#656565;stop-opacity:1"
         offset="0" />
      <stop
         id="stop5761"
         style="stop-color:#333333;stop-opacity:1"
         offset="1" />
    </linearGradient>
    <linearGradient
       id="linearGradient5309">
      <stop
         id="stop5311"
         style="stop-color:#5e5e5e;stop-opacity:1"
         offset="0" />
      <stop
         id="stop5313"
         style="stop-color:#414141;stop-opacity:1"
         offset="1" />
    </linearGradient>
    <linearGradient
       id="linearGradient4995">
      <stop
         id="stop4997"
         style="stop-color:#1f1f1f;stop-opacity:1"
         offset="0" />
      <stop
         id="stop5003"
         style="stop-color:#8d8d8d;stop-opacity:1"
         offset="0.74137932" />
      <stop
         id="stop4999"
         style="stop-color:#606060;stop-opacity:1"
         offset="1" />
    </linearGradient>
    <linearGradient
       x1="447.99783"
       y1="280.24783"
       x2="267.79407"
       y2="280.24783"
       id="linearGradient5304"
       xlink:href="#linearGradient4995"
       gradientUnits="userSpaceOnUse"
       gradientTransform="matrix(0.8975407,0.4409316,-0.4409316,0.8975407,159.50516,-129.178)" />
    <linearGradient
       x1="276.65573"
       y1="214.52765"
       x2="400.16425"
       y2="360.65201"
       id="linearGradient5315"
       xlink:href="#linearGradient5309"
       gradientUnits="userSpaceOnUse" />
    <filter
       color-interpolation-filters="sRGB"
       id="filter5343">
      <feGaussianBlur
         id="feGaussianBlur5345"
         stdDeviation="1.533125" />
    </filter>
    <filter
       x="-0.59326315"
       y="-0.025011834"
       width="2.1865263"
       height="1.0500237"
       color-interpolation-filters="sRGB"
       id="filter5349">
      <feGaussianBlur
         id="feGaussianBlur5351"
         stdDeviation="1.3209374" />
    </filter>
    <filter
       color-interpolation-filters="sRGB"
       id="filter5775">
      <feGaussianBlur
         id="feGaussianBlur5777"
         stdDeviation="2.40107" />
    </filter>
    <filter
       color-interpolation-filters="sRGB"
       id="filter5825">
      <feGaussianBlur
         id="feGaussianBlur5827"
         stdDeviation="1.4445019" />
    </filter>
    <filter
       color-interpolation-filters="sRGB"
       id="filter5833">
      <feGaussianBlur
         id="feGaussianBlur5835"
         stdDeviation="0.95337817" />
    </filter>
    <filter
       color-interpolation-filters="sRGB"
       id="filter5839">
      <feGaussianBlur
         id="feGaussianBlur5841"
         stdDeviation="0.97313777" />
    </filter>
    <radialGradient
       cx="358.08221"
       cy="-10.573073"
       r="241.75426"
       fx="358.08221"
       fy="-10.573073"
       id="radialGradient5854"
       xlink:href="#linearGradient5848"
       gradientUnits="userSpaceOnUse"
       gradientTransform="matrix(1,0,0,0.2779331,0,74.792921)" />
    <radialGradient
       cx="302.27814"
       cy="-20.488522"
       r="190.60487"
       fx="302.27814"
       fy="-20.488522"
       id="radialGradient5871"
       xlink:href="#linearGradient5863"
       gradientUnits="userSpaceOnUse"
       gradientTransform="matrix(1,0,0,0.302072,0,92.418715)" />
    <linearGradient
       x1="204.1815"
       y1="178.34375"
       x2="208.90904"
       y2="355.21875"
       id="linearGradient5898"
       xlink:href="#linearGradient5892"
       gradientUnits="userSpaceOnUse" />
    <filter
       x="-0.031167211"
       y="-0.10436599"
       width="1.0623344"
       height="1.208732"
       color-interpolation-filters="sRGB"
       id="filter6028">
      <feGaussianBlur
         id="feGaussianBlur6030"
         stdDeviation="4.9640288" />
    </filter>
    <filter
       color-interpolation-filters="sRGB"
       id="filter6380">
      <feGaussianBlur
         id="feGaussianBlur6382"
         stdDeviation="0.7359692" />
    </filter>
    <filter
       color-interpolation-filters="sRGB"
       id="filter6407">
      <feGaussianBlur
         id="feGaussianBlur6409"
         stdDeviation="3.7826356" />
    </filter>
    <filter
       color-interpolation-filters="sRGB"
       id="filter6411">
      <feGaussianBlur
         id="feGaussianBlur6413"
         stdDeviation="2.8887313" />
    </filter>
    <linearGradient
       x1="336.71756"
       y1="471.30981"
       x2="373.41986"
       y2="139.59068"
       id="linearGradient3944"
       xlink:href="#linearGradient5757"
       gradientUnits="userSpaceOnUse"
       gradientTransform="matrix(-0.9939347,0.1099716,-0.1099716,-0.9939347,744.35503,519.43871)" />
    <radialGradient
       cx="507.6962"
       cy="-352.62701"
       r="49.672661"
       fx="507.6962"
       fy="-352.62701"
       id="radialGradient4056"
       xlink:href="#linearGradient4050"
       gradientUnits="userSpaceOnUse"
       gradientTransform="matrix(0.4605061,-0.2688396,0.4476508,0.766799,496.72959,814.44223)" />
    <radialGradient
       cx="507.6962"
       cy="-352.62701"
       r="49.672661"
       fx="507.6962"
       fy="-352.62701"
       id="radialGradient4072"
       xlink:href="#linearGradient4050"
       gradientUnits="userSpaceOnUse"
       gradientTransform="matrix(-0.4605061,-0.2688396,-0.4476508,0.766799,219.80188,814.44224)" />
    <filter
       x="-0.15367047"
       y="-0.14328969"
       width="1.307341"
       height="1.2865794"
       color-interpolation-filters="sRGB"
       id="filter4085">
      <feGaussianBlur
         id="feGaussianBlur4087"
         stdDeviation="6.6010272" />
    </filter>
    <filter
       x="-0.15367047"
       y="-0.14328969"
       width="1.3073409"
       height="1.2865794"
       color-interpolation-filters="sRGB"
       id="filter4089">
      <feGaussianBlur
         id="feGaussianBlur4091"
         stdDeviation="6.6010272" />
    </filter>
    <radialGradient
       cx="157.24127"
       cy="49.963821"
       r="300.00851"
       fx="157.24127"
       fy="49.963821"
       id="radialGradient4123"
       xlink:href="#linearGradient4117"
       gradientUnits="userSpaceOnUse"
       gradientTransform="matrix(0.8657465,-0.03393442,0.03275634,0.835691,19.47356,22.601133)" />
    <filter
       color-interpolation-filters="sRGB"
       id="filter4247">
      <feGaussianBlur
         id="feGaussianBlur4249"
         stdDeviation="0.7654176" />
    </filter>
    <filter
       color-interpolation-filters="sRGB"
       id="filter4251">
      <feGaussianBlur
         id="feGaussianBlur4253"
         stdDeviation="0.7654176" />
    </filter>
    <radialGradient
       inkscape:collect="always"
       xlink:href="#linearGradient4050"
       id="radialGradient3405"
       gradientUnits="userSpaceOnUse"
       gradientTransform="matrix(-0.4605061,-0.2688396,-0.4476508,0.766799,279.2651,920.23383)"
       cx="507.6962"
       cy="-352.62701"
       fx="507.6962"
       fy="-352.62701"
       r="49.672661" />
    <radialGradient
       inkscape:collect="always"
       xlink:href="#linearGradient4050"
       id="radialGradient3413"
       gradientUnits="userSpaceOnUse"
       gradientTransform="matrix(0.4605061,-0.2688396,0.4476508,0.766799,556.19281,920.23382)"
       cx="507.6962"
       cy="-352.62701"
       fx="507.6962"
       fy="-352.62701"
       r="49.672661" />
    <radialGradient
       inkscape:collect="always"
       xlink:href="#linearGradient4117"
       id="radialGradient3419"
       gradientUnits="userSpaceOnUse"
       gradientTransform="matrix(0.8657465,-0.03393442,0.03275634,0.835691,78.936776,128.39272)"
       cx="157.24127"
       cy="49.963821"
       fx="157.24127"
       fy="49.963821"
       r="300.00851" />
    <radialGradient
       inkscape:collect="always"
       xlink:href="#linearGradient5848"
       id="radialGradient3452"
       gradientUnits="userSpaceOnUse"
       gradientTransform="matrix(1,0,0,0.2779331,59.463216,180.58451)"
       cx="358.08221"
       cy="-10.573073"
       fx="358.08221"
       fy="-10.573073"
       r="241.75426" />
    <radialGradient
       inkscape:collect="always"
       xlink:href="#linearGradient5863"
       id="radialGradient3470"
       gradientUnits="userSpaceOnUse"
       gradientTransform="matrix(1,0,0,0.302072,115.2698,180.55436)"
       cx="302.27814"
       cy="-20.488522"
       fx="302.27814"
       fy="-20.488522"
       r="190.60487" />
    <linearGradient
       inkscape:collect="always"
       xlink:href="#linearGradient4995"
       id="linearGradient3505"
       gradientUnits="userSpaceOnUse"
       gradientTransform="matrix(0.8975407,0.4409316,-0.4409316,0.8975407,218.96838,-23.386406)"
       x1="447.99783"
       y1="280.24783"
       x2="267.79407"
       y2="280.24783" />
    <linearGradient
       inkscape:collect="always"
       xlink:href="#linearGradient5757"
       id="linearGradient3620"
       gradientUnits="userSpaceOnUse"
       gradientTransform="matrix(-0.9939347,0.1099716,-0.1099716,-0.9939347,803.81825,625.2303)"
       x1="336.71756"
       y1="471.30981"
       x2="373.41986"
       y2="139.59068" />
    <linearGradient
       inkscape:collect="always"
       xlink:href="#linearGradient5309"
       id="linearGradient3626"
       gradientUnits="userSpaceOnUse"
       gradientTransform="matrix(1.0656897,0.5235376,-0.5235376,1.0656897,178.95356,-93.981276)"
       x1="276.65573"
       y1="214.52765"
       x2="400.16425"
       y2="360.65201" />
    <linearGradient
       inkscape:collect="always"
       xlink:href="#linearGradient5892"
       id="linearGradient3629"
       gradientUnits="userSpaceOnUse"
       gradientTransform="translate(115.2698,88.135654)"
       x1="204.1815"
       y1="178.34375"
       x2="208.90904"
       y2="355.21875" />
    <filter
       inkscape:collect="always"
       id="filter4420"
       color-interpolation-filters="sRGB">
      <feGaussianBlur
         inkscape:collect="always"
         stdDeviation="1.2956931"
         id="feGaussianBlur4422" />
    </filter>
    <linearGradient
       inkscape:collect="always"
       xlink:href="#linearGradient5892"
       id="linearGradient3977"
       gradientUnits="userSpaceOnUse"
       gradientTransform="translate(115.2698,88.135654)"
       x1="204.1815"
       y1="178.34375"
       x2="208.90904"
       y2="355.21875" />
    <linearGradient
       inkscape:collect="always"
       xlink:href="#linearGradient5309"
       id="linearGradient3979"
       gradientUnits="userSpaceOnUse"
       gradientTransform="matrix(1.0656897,0.5235376,-0.5235376,1.0656897,178.95356,-93.981276)"
       x1="276.65573"
       y1="214.52765"
       x2="400.16425"
       y2="360.65201" />
    <linearGradient
       inkscape:collect="always"
       xlink:href="#linearGradient5757"
       id="linearGradient3981"
       gradientUnits="userSpaceOnUse"
       gradientTransform="matrix(-0.9939347,0.1099716,-0.1099716,-0.9939347,803.81825,625.2303)"
       x1="336.71756"
       y1="471.30981"
       x2="373.41986"
       y2="139.59068" />
    <linearGradient
       inkscape:collect="always"
       xlink:href="#linearGradient4995"
       id="linearGradient3983"
       gradientUnits="userSpaceOnUse"
       gradientTransform="matrix(0.8975407,0.4409316,-0.4409316,0.8975407,218.96838,-23.386406)"
       x1="447.99783"
       y1="280.24783"
       x2="267.79407"
       y2="280.24783" />
    <radialGradient
       inkscape:collect="always"
       xlink:href="#linearGradient5863"
       id="radialGradient3985"
       gradientUnits="userSpaceOnUse"
       gradientTransform="matrix(1,0,0,0.302072,115.2698,180.55436)"
       cx="302.27814"
       cy="-20.488522"
       fx="302.27814"
       fy="-20.488522"
       r="190.60487" />
    <radialGradient
       inkscape:collect="always"
       xlink:href="#linearGradient5848"
       id="radialGradient3987"
       gradientUnits="userSpaceOnUse"
       gradientTransform="matrix(1,0,0,0.2779331,59.463216,180.58451)"
       cx="358.08221"
       cy="-10.573073"
       fx="358.08221"
       fy="-10.573073"
       r="241.75426" />
    <radialGradient
       inkscape:collect="always"
       xlink:href="#linearGradient4117"
       id="radialGradient3989"
       gradientUnits="userSpaceOnUse"
       gradientTransform="matrix(0.8657465,-0.03393442,0.03275634,0.835691,78.936776,128.39272)"
       cx="157.24127"
       cy="49.963821"
       fx="157.24127"
       fy="49.963821"
       r="300.00851" />
    <radialGradient
       inkscape:collect="always"
       xlink:href="#linearGradient4050"
       id="radialGradient3991"
       gradientUnits="userSpaceOnUse"
       gradientTransform="matrix(0.4605061,-0.2688396,0.4476508,0.766799,556.19281,920.23382)"
       cx="507.6962"
       cy="-352.62701"
       fx="507.6962"
       fy="-352.62701"
       r="49.672661" />
    <radialGradient
       inkscape:collect="always"
       xlink:href="#linearGradient4050"
       id="radialGradient3993"
       gradientUnits="userSpaceOnUse"
       gradientTransform="matrix(-0.4605061,-0.2688396,-0.4476508,0.766799,279.2651,920.23383)"
       cx="507.6962"
       cy="-352.62701"
       fx="507.6962"
       fy="-352.62701"
       r="49.672661" />
    <radialGradient
       inkscape:collect="always"
       xlink:href="#linearGradient4050"
       id="radialGradient4002"
       gradientUnits="userSpaceOnUse"
       gradientTransform="matrix(-0.4605061,-0.2688396,-0.4476508,0.766799,279.2651,920.23383)"
       cx="507.6962"
       cy="-352.62701"
       fx="507.6962"
       fy="-352.62701"
       r="49.672661" />
    <radialGradient
       inkscape:collect="always"
       xlink:href="#linearGradient4050"
       id="radialGradient4010"
       gradientUnits="userSpaceOnUse"
       gradientTransform="matrix(0.4605061,-0.2688396,0.4476508,0.766799,556.19281,920.23382)"
       cx="507.6962"
       cy="-352.62701"
       fx="507.6962"
       fy="-352.62701"
       r="49.672661" />
    <radialGradient
       inkscape:collect="always"
       xlink:href="#linearGradient4117"
       id="radialGradient4016"
       gradientUnits="userSpaceOnUse"
       gradientTransform="matrix(0.8657465,-0.03393442,0.03275634,0.835691,186.21758,218.55063)"
       cx="157.24127"
       cy="49.963821"
       fx="157.24127"
       fy="49.963821"
       r="300.00851" />
    <radialGradient
       inkscape:collect="always"
       xlink:href="#linearGradient5848"
       id="radialGradient4049"
       gradientUnits="userSpaceOnUse"
       gradientTransform="matrix(1,0,0,0.2779331,59.463216,180.58451)"
       cx="358.08221"
       cy="-10.573073"
       fx="358.08221"
       fy="-10.573073"
       r="241.75426" />
    <radialGradient
       inkscape:collect="always"
       xlink:href="#linearGradient5863"
       id="radialGradient4067"
       gradientUnits="userSpaceOnUse"
       gradientTransform="matrix(1,0,0,0.302072,115.2698,180.55436)"
       cx="302.27814"
       cy="-20.488522"
       fx="302.27814"
       fy="-20.488522"
       r="190.60487" />
    <linearGradient
       inkscape:collect="always"
       xlink:href="#linearGradient4995"
       id="linearGradient4102"
       gradientUnits="userSpaceOnUse"
       gradientTransform="matrix(0.8975407,0.4409316,-0.4409316,0.8975407,218.96838,-23.386406)"
       x1="447.99783"
       y1="280.24783"
       x2="267.79407"
       y2="280.24783" />
    <linearGradient
       inkscape:collect="always"
       xlink:href="#linearGradient5757"
       id="linearGradient4217"
       gradientUnits="userSpaceOnUse"
       gradientTransform="matrix(-0.97509641,0.22178129,-0.22178129,-0.97509641,828.1435,580.02774)"
       x1="336.71756"
       y1="471.30981"
       x2="373.41986"
       y2="139.59068" />
    <linearGradient
       inkscape:collect="always"
       xlink:href="#linearGradient5309"
       id="linearGradient4224"
       gradientUnits="userSpaceOnUse"
       gradientTransform="matrix(1.0656897,0.5235376,-0.5235376,1.0656897,178.95356,-93.981276)"
       x1="276.65573"
       y1="214.52765"
       x2="400.16425"
       y2="360.65201" />
    <linearGradient
       inkscape:collect="always"
       xlink:href="#linearGradient5892"
       id="linearGradient4227"
       gradientUnits="userSpaceOnUse"
       gradientTransform="translate(222.5506,178.29357)"
       x1="204.1815"
       y1="178.34375"
       x2="208.90904"
       y2="355.21875" />
    <radialGradient
       inkscape:collect="always"
       xlink:href="#linearGradient5848"
       id="radialGradient5462"
       gradientUnits="userSpaceOnUse"
       gradientTransform="matrix(1,0,0,0.2779331,166.74402,270.74242)"
       cx="358.08221"
       cy="-10.573073"
       fx="358.08221"
       fy="-10.573073"
       r="241.75426" />
    <radialGradient
       inkscape:collect="always"
       xlink:href="#linearGradient4050"
       id="radialGradient5709"
       gradientUnits="userSpaceOnUse"
       gradientTransform="matrix(0.4605061,-0.2688396,0.4476508,0.766799,663.47361,1010.3917)"
       cx="507.6962"
       cy="-352.62701"
       fx="507.6962"
       fy="-352.62701"
       r="49.672661" />
    <radialGradient
       inkscape:collect="always"
       xlink:href="#linearGradient4050"
       id="radialGradient5711"
       gradientUnits="userSpaceOnUse"
       gradientTransform="matrix(-0.4605061,-0.2688396,-0.4476508,0.766799,386.5459,1010.3917)"
       cx="507.6962"
       cy="-352.62701"
       fx="507.6962"
       fy="-352.62701"
       r="49.672661" />
    <linearGradient
       inkscape:collect="always"
       xlink:href="#linearGradient5757"
       id="linearGradient5713"
       gradientUnits="userSpaceOnUse"
       gradientTransform="matrix(-0.97509641,0.22178129,-0.22178129,-0.97509641,828.1435,580.02774)"
       x1="336.71756"
       y1="471.30981"
       x2="373.41986"
       y2="139.59068" />
    <linearGradient
       inkscape:collect="always"
       xlink:href="#linearGradient5309"
       id="linearGradient5715"
       gradientUnits="userSpaceOnUse"
       gradientTransform="matrix(0.72833175,0.93772006,-0.93772006,0.72833175,470.2872,-21.521167)"
       x1="276.65573"
       y1="214.52765"
       x2="400.16425"
       y2="360.65201" />
    <linearGradient
       inkscape:collect="always"
       xlink:href="#linearGradient4995"
       id="linearGradient5717"
       gradientUnits="userSpaceOnUse"
       gradientTransform="matrix(0.61341253,0.78976265,-0.78976265,0.61341253,475.30551,59.470415)"
       x1="447.99783"
       y1="280.24783"
       x2="267.79407"
       y2="280.24783" />
    <linearGradient
       inkscape:collect="always"
       xlink:href="#linearGradient5757"
       id="linearGradient3180"
       gradientUnits="userSpaceOnUse"
       gradientTransform="matrix(-0.97509641,0.22178129,-0.22178129,-0.97509641,828.1435,580.02774)"
       x1="336.71756"
       y1="471.30981"
       x2="373.41986"
       y2="139.59068" />
    <linearGradient
       inkscape:collect="always"
       xlink:href="#linearGradient5757"
       id="linearGradient3198"
       gradientUnits="userSpaceOnUse"
       gradientTransform="matrix(-0.97509641,0.22178129,-0.22178129,-0.97509641,828.1435,580.02774)"
       x1="336.71756"
       y1="471.30981"
       x2="373.41986"
       y2="139.59068" />
    <linearGradient
       inkscape:collect="always"
       xlink:href="#linearGradient5757"
       id="linearGradient3203"
       gradientUnits="userSpaceOnUse"
       gradientTransform="matrix(-0.99393471,0.10997161,-0.10997161,-0.99393471,803.81825,625.2303)"
       x1="336.71756"
       y1="471.30981"
       x2="373.41986"
       y2="139.59068" />
    <linearGradient
       inkscape:collect="always"
       xlink:href="#linearGradient5309"
       id="linearGradient3246"
       gradientUnits="userSpaceOnUse"
       gradientTransform="matrix(0.72833175,0.93772006,-0.93772006,0.72833175,470.2872,-21.521167)"
       x1="276.65573"
       y1="214.52765"
       x2="400.16425"
       y2="360.65201" />
    <linearGradient
       inkscape:collect="always"
       xlink:href="#linearGradient4995"
       id="linearGradient3248"
       gradientUnits="userSpaceOnUse"
       gradientTransform="matrix(0.61341253,0.78976265,-0.78976265,0.61341253,475.30551,59.470415)"
       x1="447.99783"
       y1="280.24783"
       x2="267.79407"
       y2="280.24783" />
    <linearGradient
       inkscape:collect="always"
       xlink:href="#linearGradient4995"
       id="linearGradient3253"
       gradientUnits="userSpaceOnUse"
       gradientTransform="matrix(0.89754072,0.44093162,-0.44093162,0.89754072,218.96837,-23.386396)"
       x1="447.99783"
       y1="280.24783"
       x2="267.79407"
       y2="280.24783" />
    <linearGradient
       inkscape:collect="always"
       xlink:href="#linearGradient5309"
       id="linearGradient3262"
       gradientUnits="userSpaceOnUse"
       gradientTransform="matrix(1.0656897,0.52353759,-0.52353759,1.0656897,178.95357,-93.981267)"
       x1="276.65573"
       y1="214.52765"
       x2="400.16425"
       y2="360.65201" />
  </defs>
  <rect
     style="fill:#353535;fill-opacity:1;stroke:#b8b8b8;stroke-width:1;stroke-linecap:round;stroke-linejoin:round;stroke-miterlimit:4;stroke-opacity:1;stroke-dasharray:none;stroke-dashoffset:0"
     id="rect5900"
     y="55.524475"
     x="67.711143"
     height="456.62558"
     width="480.26559" />
  <path
     style="fill:#505050;fill-opacity:1;stroke:none"
     id="path5880"
     d="m 274.56129,104.82635 69.20925,0.77763 -4.35474,-5.91 -62.67714,0.93316 -2.17737,4.19921 z"
     inkscape:connector-curvature="0" />
  <path
     style="fill:url(#radialGradient4067);fill-opacity:1;stroke:none"
     id="path5861"
     d="m 491.96476,186.20652 -9.01785,-0.89543 C 449.36378,133.82388 381.21475,92.45548 310.63686,92.45548 c -48.21862,0 -138.07674,29.04 -173.53863,95.01735 l -7.25827,-1.75958 -9.6777,-15.83622 c 4.24034,-66.78055 85.96385,-87.98275 189.15492,-96.55699 126.57234,9.05437 221.17875,32.90736 182.64758,112.88648 z"
     inkscape:connector-curvature="0" />
  <g
     inkscape:groupmode="layer"
     id="Chassis"
     inkscape:label="Chassis"
     style="display:inline">
    <g
       id="g4313"
       transform="translate(-107.2808,-90.157915)">
      <path
         inkscape:connector-curvature="0"
         d="m 150.73855,266.9794 0,352.75 536.25,0 0,-352.75 -114.0625,0 c 25.28733,33.00204 40.34375,74.27423 40.34375,119.0625 0,108.21669 -87.7208,195.9375 -195.9375,195.9375 -108.21671,0 -195.96875,-87.72081 -195.96875,-195.9375 0,-44.78827 15.05642,-86.06046 40.34375,-119.0625 l -110.96875,0 z"
         id="rect5886"
         style="fill:url(#linearGradient4227);fill-opacity:1;stroke:none" />
      <path
         d="m 585.69151,-419.1835 18.77448,0 c 0.76949,0 1.38896,0.61947 1.38896,1.38896 l 0,2.27284 c 0,0.76948 -0.61947,1.38896 -1.38896,1.38896 l -18.77448,0 c -0.76948,0 -1.38896,-0.61948 -1.38896,-1.38896 l 0,-2.27284 c 0,-0.76949 0.61948,-1.38896 1.38896,-1.38896 z m -57.92898,145.0771 13.27556,13.27556 c 0.54411,0.54411 1.42018,0.54411 1.96429,0 l 1.60714,-1.60714 c 0.5441,-0.5441 0.5441,-1.42018 0,-1.96429 l -13.27556,-13.27556 c -0.54411,-0.54411 -1.42018,-0.5441 -1.96429,0 l -1.60714,1.60714 c -0.54411,0.54411 -0.54411,1.42018 0,1.96429 z m -0.93297,-285.50448 13.27557,-13.27557 c 0.54411,-0.54411 1.42018,-0.54411 1.96429,0 l 1.60714,1.60714 c 0.54411,0.54411 0.54411,1.42018 0,1.96428 l -13.27557,13.27557 c -0.5441,0.54411 -1.42018,0.54411 -1.96428,0 l -1.60715,-1.60714 c -0.5441,-0.54411 -0.5441,-1.42018 0,-1.96428 z m -138.63529,-58.29273 0,-30.55712 c 0,-0.76948 0.61948,-1.38896 1.38896,-1.38896 l 2.27285,0 c 0.76948,0 1.38896,0.61948 1.38896,1.38896 l 0,30.55712 c 0,0.76949 -0.61948,1.38896 -1.38896,1.38896 l -2.27285,0 c -0.76948,0 -1.38896,-0.61947 -1.38896,-1.38896 z m 0,433.43399 0,-30.55712 c 0,-0.76948 0.61948,-1.38896 1.38896,-1.38896 l 2.27285,0 c 0.76948,0 1.38896,0.61948 1.38896,1.38896 l 0,30.55712 c 0,0.76949 -0.61948,1.38896 -1.38896,1.38896 l -2.27285,0 c -0.76948,0 -1.38896,-0.61947 -1.38896,-1.38896 z m -99.95396,-31.94608 c -0.80446,0 -1.46875,0.63304 -1.46875,1.4375 l 0,4.96875 c -1.42952,0.76192 -2.40625,2.23578 -2.40625,3.96875 0,1.73297 0.97673,3.23808 2.40625,4 l 0,4.9375 c 0,0.80446 0.66429,1.46875 1.46875,1.46875 l 1.3125,0 c 0.80447,0 1.46875,-0.66429 1.46875,-1.46875 l 0,-4.9375 c 1.42233,-0.76413 2.40625,-2.27235 2.40625,-4 0,-1.72765 -0.98392,-3.20462 -2.40625,-3.96875 l 0,-4.96875 c 0,-0.80446 -0.66428,-1.4375 -1.46875,-1.4375 l -1.3125,0 z m 50.71429,0 c -0.80446,0 -1.46875,0.63304 -1.46875,1.4375 l 0,4.96875 c -1.42952,0.76192 -2.40625,2.23578 -2.40625,3.96875 0,1.73297 0.97673,3.23808 2.40625,4 l 0,4.9375 c 0,0.80446 0.66429,1.46875 1.46875,1.46875 l 1.3125,0 c 0.80447,0 1.46875,-0.66429 1.46875,-1.46875 l 0,-4.9375 c 1.42233,-0.76413 2.40625,-2.27235 2.40625,-4 0,-1.72765 -0.98392,-3.20462 -2.40625,-3.96875 l 0,-4.96875 c 0,-0.80446 -0.66428,-1.4375 -1.46875,-1.4375 l -1.3125,0 z m 143.92857,0 c -0.80446,0 -1.46875,0.63304 -1.46875,1.4375 l 0,4.96875 c -1.42952,0.76192 -2.40625,2.23578 -2.40625,3.96875 0,1.73297 0.97673,3.23808 2.40625,4 l 0,4.9375 c 0,0.80446 0.66429,1.46875 1.46875,1.46875 l 1.3125,0 c 0.80447,0 1.46875,-0.66429 1.46875,-1.46875 l 0,-4.9375 c 1.42233,-0.76413 2.40625,-2.27235 2.40625,-4 0,-1.72765 -0.98392,-3.20462 -2.40625,-3.96875 l 0,-4.96875 c 0,-0.80446 -0.66428,-1.4375 -1.46875,-1.4375 l -1.3125,0 z m -47.14286,0 c -0.80446,0 -1.46875,0.63304 -1.46875,1.4375 l 0,4.96875 c -1.42952,0.76192 -2.40625,2.23578 -2.40625,3.96875 0,1.73297 0.97673,3.23808 2.40625,4 l 0,4.9375 c 0,0.80446 0.66429,1.46875 1.46875,1.46875 l 1.3125,0 c 0.80447,0 1.46875,-0.66429 1.46875,-1.46875 l 0,-4.9375 c 1.42233,-0.76413 2.40625,-2.27235 2.40625,-4 0,-1.72765 -0.98392,-3.20462 -2.40625,-3.96875 l 0,-4.96875 c 0,-0.80446 -0.66428,-1.4375 -1.46875,-1.4375 l -1.3125,0 z m -147.5,-420.88022 c -0.80446,0 -1.46875,0.63304 -1.46875,1.4375 l 0,4.96875 c -1.42952,0.76192 -2.40625,2.23578 -2.40625,3.96875 0,1.73297 0.97673,3.23808 2.40625,4 l 0,4.9375 c 0,0.80446 0.66429,1.46875 1.46875,1.46875 l 1.3125,0 c 0.80447,0 1.46875,-0.66429 1.46875,-1.46875 l 0,-4.9375 c 1.42233,-0.76413 2.40625,-2.27235 2.40625,-4 0,-1.72765 -0.98392,-3.20462 -2.40625,-3.96875 l 0,-4.96875 c 0,-0.80446 -0.66428,-1.4375 -1.46875,-1.4375 l -1.3125,0 z m 50.71429,0 c -0.80446,0 -1.46875,0.63304 -1.46875,1.4375 l 0,4.96875 c -1.42952,0.76192 -2.40625,2.23578 -2.40625,3.96875 0,1.73297 0.97673,3.23808 2.40625,4 l 0,4.9375 c 0,0.80446 0.66429,1.46875 1.46875,1.46875 l 1.3125,0 c 0.80447,0 1.46875,-0.66429 1.46875,-1.46875 l 0,-4.9375 c 1.42233,-0.76413 2.40625,-2.27235 2.40625,-4 0,-1.72765 -0.98392,-3.20462 -2.40625,-3.96875 l 0,-4.96875 c 0,-0.80446 -0.66428,-1.4375 -1.46875,-1.4375 l -1.3125,0 z m 143.92857,0 c -0.80446,0 -1.46875,0.63304 -1.46875,1.4375 l 0,4.96875 c -1.42952,0.76192 -2.40625,2.23578 -2.40625,3.96875 0,1.73297 0.97673,3.23808 2.40625,4 l 0,4.9375 c 0,0.80446 0.66429,1.46875 1.46875,1.46875 l 1.3125,0 c 0.80447,0 1.46875,-0.66429 1.46875,-1.46875 l 0,-4.9375 c 1.42233,-0.76413 2.40625,-2.27235 2.40625,-4 0,-1.72765 -0.98392,-3.20462 -2.40625,-3.96875 l 0,-4.96875 c 0,-0.80446 -0.66428,-1.4375 -1.46875,-1.4375 l -1.3125,0 z m -47.14286,0 c -0.80446,0 -1.46875,0.63304 -1.46875,1.4375 l 0,4.96875 c -1.42952,0.76192 -2.40625,2.23578 -2.40625,3.96875 0,1.73297 0.97673,3.23808 2.40625,4 l 0,4.9375 c 0,0.80446 0.66429,1.46875 1.46875,1.46875 l 1.3125,0 c 0.80447,0 1.46875,-0.66429 1.46875,-1.46875 l 0,-4.9375 c 1.42233,-0.76413 2.40625,-2.27235 2.40625,-4 0,-1.72765 -0.98392,-3.20462 -2.40625,-3.96875 l 0,-4.96875 c 0,-0.80446 -0.66428,-1.4375 -1.46875,-1.4375 l -1.3125,0 z"
         style="fill:#ffffff;fill-opacity:1;stroke:none"
         transform="matrix(0,1,-1,0,0,0)"
         id="rect5765"
         inkscape:connector-curvature="0" />
    </g>
    <g
       id="Compass">
      <g
         id="CDIFrame">
        <path
           style="fill:url(#linearGradient3262);fill-opacity:1;stroke:none;display:inline"
           d="M 309.6875 163.46875 C 236.61827 163.26044 177.2083 222.33702 177 295.40625 C 176.79169 368.47546 235.86826 427.88545 308.9375 428.09375 C 382.00672 428.30206 441.41669 369.22546 441.625 296.15625 C 441.8333 223.08702 382.75672 163.67705 309.6875 163.46875 z "
           id="path5252" />
        <path
           style="fill:#000000;fill-opacity:0.3535912;stroke:none"
           d="M 214.96875 208.625 C 210.23821 213.74255 205.88811 219.19482 202.03125 225.03125 L 417 225.65625 C 413.17647 219.79792 408.82629 214.33194 404.125 209.1875 L 214.96875 208.625 z "
           id="path4817" />
        <g
           id="ToFrom">
          <path
             style="fill:#202220;fill-opacity:1;fill-rule:nonzero;stroke:#4e4e4e;stroke-width:0.66873753;stroke-linecap:butt;stroke-miterlimit:4;stroke-opacity:1;stroke-dasharray:none;filter:url(#filter4420);enable-background:new"
             d="M 344.46875,238.75 243.9375,299.3125 259.71875,326.28125 360.25,265.71875 344.46875,238.75 z"
             id="rect4414"
             inkscape:connector-curvature="0" />
          <path
             style="fill:#555555;fill-opacity:1;fill-rule:nonzero;stroke:#4e4e4e;stroke-width:0.66873753;stroke-linecap:butt;stroke-miterlimit:4;stroke-opacity:1"
             d="m 341.8125,237.8125 -100.53125,60.59375 15.75,26.96875 100.53125,-60.5625 -15.75,-27 z"
             id="rect4404"
             inkscape:connector-curvature="0" />
          <path
             style="fill:#ffffff;fill-opacity:1;stroke:none"
             d="m 341.90625,238.4375 -14.8125,26.1875 30.09375,-0.25 -15.28125,-25.9375 z"
             id="path4129"
             inkscape:connector-curvature="0" />
        </g>
        <path
           style="fill:#393939;fill-opacity:1;stroke:none"
           d="M 203.8125 268.78125 L 203.65625 322.1875 L 414.8125 322.78125 L 414.96875 269.375 L 203.8125 268.78125 z "
           id="rect4787" />
        <path
           style="fill:url(#linearGradient3253);fill-opacity:1;stroke:none"
           d="M 203.8125 268.78125 L 203.65625 322.1875 C 274.53888 318.97869 344.90114 319.32688 414.8125 322.78125 L 414.96875 269.375 C 344.57075 273.51034 274.18606 273.21707 203.8125 268.78125 z "
           id="path4904" />
        <path
           style="fill:#272727;fill-opacity:1;stroke:none"
           d="M 217.84375 285.40625 C 217.0393 285.40425 216.37731 286.03933 216.375 286.84375 L 216.34375 291.8125 C 214.91206 292.57031 213.94243 294.04828 213.9375 295.78125 C 213.9325 297.51421 214.91641 299.01526 216.34375 299.78125 L 216.3125 304.71875 C 216.3105 305.5232 216.97679 306.18521 217.78125 306.1875 L 219.09375 306.1875 C 219.8982 306.1895 220.5602 305.52322 220.5625 304.71875 L 220.59375 299.78125 C 222.01824 299.02117 222.99507 297.54015 223 295.8125 C 223.005 294.08485 222.01389 292.58069 220.59375 291.8125 L 220.625 286.84375 C 220.627 286.03929 219.9607 285.40855 219.15625 285.40625 L 217.84375 285.40625 z M 236.1875 285.46875 C 235.38304 285.46675 234.72106 286.10184 234.71875 286.90625 L 234.6875 291.875 C 233.25579 292.63281 232.28618 294.11079 232.28125 295.84375 C 232.27625 297.57671 233.22892 299.07775 234.65625 299.84375 L 234.65625 304.78125 C 234.65425 305.58571 235.32053 306.2477 236.125 306.25 L 237.4375 306.25 C 238.24196 306.252 238.90396 305.58572 238.90625 304.78125 L 238.90625 299.84375 C 240.33075 299.08367 241.33884 297.5714 241.34375 295.84375 C 241.34875 294.11611 240.35765 292.64318 238.9375 291.875 L 238.96875 286.90625 C 238.97075 286.1018 238.30445 285.47105 237.5 285.46875 L 236.1875 285.46875 z M 254.21875 285.53125 C 253.5523 285.66166 253.03326 286.23363 253.03125 286.9375 L 253.03125 291.90625 C 251.59954 292.66406 250.5987 294.14203 250.59375 295.875 C 250.58875 297.60796 251.57265 299.10901 253 299.875 L 253 304.8125 C 252.998 305.61696 253.63304 306.31021 254.4375 306.3125 L 255.75 306.3125 C 256.55446 306.3145 257.24771 305.64821 257.25 304.84375 L 257.25 299.90625 C 258.6745 299.14616 259.65132 297.63389 259.65625 295.90625 C 259.66125 294.17861 258.7014 292.70568 257.28125 291.9375 L 257.28125 286.96875 C 257.28325 286.16429 256.61695 285.53355 255.8125 285.53125 L 254.5 285.53125 C 254.39944 285.531 254.31396 285.51262 254.21875 285.53125 z M 272.84375 285.5625 C 272.03929 285.5605 271.37731 286.19558 271.375 287 L 271.34375 291.96875 C 269.91206 292.72656 268.94244 294.20454 268.9375 295.9375 C 268.9325 297.67046 269.91641 299.17152 271.34375 299.9375 L 271.3125 304.875 C 271.3105 305.67946 271.97679 306.34146 272.78125 306.34375 L 274.09375 306.34375 C 274.8982 306.34575 275.56021 305.67947 275.5625 304.875 L 275.59375 299.9375 C 277.01825 299.17741 277.99508 297.69639 278 295.96875 C 278.005 294.24111 277.01389 292.73692 275.59375 291.96875 L 275.625 287 C 275.627 286.19555 274.96069 285.5648 274.15625 285.5625 L 272.84375 285.5625 z M 291.1875 285.625 C 290.38304 285.623 289.72105 286.25808 289.71875 287.0625 L 289.6875 292.03125 C 288.2558 292.78906 287.28619 294.26704 287.28125 296 C 287.27625 297.73296 288.22892 299.23401 289.65625 300 L 289.65625 304.9375 C 289.65425 305.74196 290.32053 306.40397 291.125 306.40625 L 292.4375 306.40625 C 293.24196 306.40825 293.90396 305.74196 293.90625 304.9375 L 293.90625 300 C 295.33075 299.23991 296.33883 297.72765 296.34375 296 C 296.34875 294.27237 295.35764 292.79943 293.9375 292.03125 L 293.96875 287.0625 C 293.97075 286.25804 293.30444 285.6273 292.5 285.625 L 291.1875 285.625 z M 309.21875 285.6875 C 308.55231 285.81791 308.03327 286.38987 308.03125 287.09375 L 308.03125 292.0625 C 306.59955 292.82031 305.62994 294.29829 305.625 296.03125 C 305.62 297.76422 306.57265 299.26525 308 300.03125 L 308 304.96875 C 307.998 305.7732 308.66428 306.46645 309.46875 306.46875 L 310.78125 306.46875 C 311.5857 306.47075 312.2477 305.80447 312.25 305 L 312.25 300.0625 C 313.67449 299.30242 314.68256 297.79014 314.6875 296.0625 C 314.6925 294.33486 313.7014 292.86193 312.28125 292.09375 L 312.28125 287.125 C 312.28325 286.32055 311.61695 285.68979 310.8125 285.6875 L 309.5 285.6875 C 309.39944 285.68725 309.31396 285.66887 309.21875 285.6875 z M 327.84375 285.71875 C 327.03929 285.71675 326.37732 286.35182 326.375 287.15625 L 326.375 292.125 C 324.9433 292.8828 323.94244 294.36079 323.9375 296.09375 C 323.9325 297.82672 324.91641 299.32777 326.34375 300.09375 L 326.3125 305.03125 C 326.3105 305.8357 326.97678 306.49772 327.78125 306.5 L 329.09375 306.5 C 329.8982 306.502 330.56021 305.83571 330.5625 305.03125 L 330.59375 300.09375 C 332.01825 299.33367 332.99508 297.85264 333 296.125 C 333.005 294.39735 332.04515 292.89318 330.625 292.125 L 330.625 287.15625 C 330.627 286.35179 329.96069 285.72104 329.15625 285.71875 L 327.84375 285.71875 z M 346.1875 285.78125 C 345.38303 285.77925 344.72106 286.41434 344.71875 287.21875 L 344.6875 292.1875 C 343.2558 292.94531 342.28619 294.42329 342.28125 296.15625 C 342.27625 297.88921 343.26016 299.39025 344.6875 300.15625 L 344.65625 305.09375 C 344.65425 305.89821 345.32053 306.56021 346.125 306.5625 L 347.4375 306.5625 C 348.24196 306.5645 348.90396 305.89822 348.90625 305.09375 L 348.9375 300.15625 C 350.362 299.39617 351.33883 297.8839 351.34375 296.15625 C 351.34875 294.42861 350.35764 292.95569 348.9375 292.1875 L 348.96875 287.21875 C 348.97075 286.41429 348.30444 285.78355 347.5 285.78125 L 346.1875 285.78125 z M 364.21875 285.84375 C 363.55231 285.97416 363.03327 286.54613 363.03125 287.25 L 363.03125 292.21875 C 361.59955 292.97656 360.62994 294.45453 360.625 296.1875 C 360.62 297.92046 361.57266 299.42151 363 300.1875 L 363 305.125 C 362.998 305.92945 363.66429 306.62271 364.46875 306.625 L 365.78125 306.625 C 366.58571 306.627 367.2477 305.96071 367.25 305.15625 L 367.25 300.21875 C 368.67449 299.45867 369.68257 297.94639 369.6875 296.21875 C 369.6925 294.49111 368.70139 293.01819 367.28125 292.25 L 367.28125 287.28125 C 367.28325 286.47679 366.6482 285.84606 365.84375 285.84375 L 364.53125 285.84375 C 364.43069 285.8435 364.31396 285.82512 364.21875 285.84375 z M 382.84375 285.875 C 382.0393 285.873 381.37731 286.50807 381.375 287.3125 L 381.375 292.28125 C 379.9433 293.03906 378.94244 294.51704 378.9375 296.25 C 378.9325 297.98296 379.91641 299.48402 381.34375 300.25 L 381.3125 305.1875 C 381.3105 305.99196 381.97678 306.65397 382.78125 306.65625 L 384.09375 306.65625 C 384.8982 306.65825 385.56021 306.02321 385.5625 305.21875 L 385.59375 300.28125 C 387.01824 299.52116 387.99508 298.00889 388 296.28125 C 388.005 294.55361 387.04515 293.08067 385.625 292.3125 L 385.625 287.34375 C 385.627 286.53929 384.9607 285.8773 384.15625 285.875 L 382.84375 285.875 z M 401.1875 285.9375 C 400.38304 285.9355 399.72106 286.57057 399.71875 287.375 L 399.6875 292.34375 C 398.25579 293.10156 397.28619 294.57953 397.28125 296.3125 C 397.27625 298.04546 398.26016 299.5465 399.6875 300.3125 L 399.65625 305.25 C 399.65425 306.05445 400.32053 306.71645 401.125 306.71875 L 402.4375 306.71875 C 403.24196 306.72075 403.90397 306.05447 403.90625 305.25 L 403.9375 300.3125 C 405.362 299.55242 406.33882 298.04014 406.34375 296.3125 C 406.34875 294.58486 405.35765 293.11193 403.9375 292.34375 L 403.96875 287.375 C 403.97075 286.57055 403.30446 285.93979 402.5 285.9375 L 401.1875 285.9375 z "
           id="path5339" />
        <path
           style="fill:#ffffff;fill-opacity:1;stroke:none"
           d="M 217 285.125 C 216.19555 285.123 215.53355 285.75807 215.53125 286.5625 L 215.53125 291.53125 C 214.09955 292.28906 213.09869 293.76704 213.09375 295.5 C 213.08875 297.23296 214.07265 298.73402 215.5 299.5 L 215.5 304.4375 C 215.498 305.24196 216.13304 305.90396 216.9375 305.90625 L 218.25 305.90625 C 219.05446 305.90825 219.7477 305.24196 219.75 304.4375 L 219.75 299.5 C 221.17449 298.73992 222.15132 297.25889 222.15625 295.53125 C 222.16125 293.8036 221.2014 292.29943 219.78125 291.53125 L 219.78125 286.5625 C 219.78325 285.75804 219.11694 285.1273 218.3125 285.125 L 217 285.125 z M 235.34375 285.1875 C 234.53929 285.1855 233.87731 285.82058 233.875 286.625 L 233.84375 291.59375 C 232.41205 292.35157 231.44244 293.79828 231.4375 295.53125 C 231.4325 297.26421 232.41641 298.7965 233.84375 299.5625 L 233.8125 304.5 C 233.8105 305.30446 234.47677 305.96645 235.28125 305.96875 L 236.59375 305.96875 C 237.39821 305.97075 238.06021 305.30447 238.0625 304.5 L 238.09375 299.5625 C 239.51824 298.80242 240.49508 297.29014 240.5 295.5625 C 240.505 293.83486 239.51389 292.36194 238.09375 291.59375 L 238.125 286.625 C 238.127 285.82054 237.46069 285.1898 236.65625 285.1875 L 235.34375 285.1875 z M 253.6875 285.21875 C 252.88304 285.21675 252.22106 285.85183 252.21875 286.65625 L 252.1875 291.625 C 250.7558 292.38281 249.78619 293.86077 249.78125 295.59375 C 249.77625 297.32671 250.72891 298.82776 252.15625 299.59375 L 252.15625 304.53125 C 252.15425 305.3357 252.82054 305.99771 253.625 306 L 254.9375 306.03125 C 255.74196 306.03325 256.40396 305.36696 256.40625 304.5625 L 256.40625 299.625 C 257.83075 298.86492 258.83881 297.35264 258.84375 295.625 C 258.84875 293.89735 257.85765 292.42444 256.4375 291.65625 L 256.46875 286.6875 C 256.47075 285.88304 255.80446 285.2523 255 285.25 L 253.6875 285.21875 z M 272 285.28125 C 271.19555 285.27925 270.53356 285.91433 270.53125 286.71875 L 270.53125 291.6875 C 269.09955 292.44531 268.09869 293.92329 268.09375 295.65625 C 268.08875 297.38921 269.07266 298.89026 270.5 299.65625 L 270.5 304.59375 C 270.498 305.39821 271.16429 306.06021 271.96875 306.0625 L 273.28125 306.0625 C 274.0857 306.0645 274.74772 305.39822 274.75 304.59375 L 274.75 299.65625 C 276.17449 298.89617 277.15133 297.41515 277.15625 295.6875 C 277.16125 293.95986 276.2014 292.45567 274.78125 291.6875 L 274.78125 286.71875 C 274.78325 285.9143 274.11695 285.28355 273.3125 285.28125 L 272 285.28125 z M 290.34375 285.34375 C 289.53929 285.34175 288.87731 285.97683 288.875 286.78125 L 288.875 291.75 C 287.4433 292.50782 286.44244 293.95454 286.4375 295.6875 C 286.4325 297.42046 287.41642 298.95276 288.84375 299.71875 L 288.8125 304.65625 C 288.8105 305.46071 289.47678 306.12271 290.28125 306.125 L 291.59375 306.125 C 292.39822 306.127 293.06022 305.46071 293.0625 304.65625 L 293.09375 299.71875 C 294.51825 298.95867 295.49507 297.4464 295.5 295.71875 C 295.505 293.99111 294.54514 292.51817 293.125 291.75 L 293.125 286.78125 C 293.127 285.97678 292.46069 285.34605 291.65625 285.34375 L 290.34375 285.34375 z M 308.6875 285.375 C 307.88305 285.373 307.22106 286.00808 307.21875 286.8125 L 307.1875 291.78125 C 305.7558 292.53906 304.78619 294.01704 304.78125 295.75 C 304.77625 297.48297 305.76015 298.984 307.1875 299.75 L 307.15625 304.6875 C 307.15425 305.49195 307.82053 306.15395 308.625 306.15625 L 309.9375 306.1875 C 310.74195 306.1895 311.40396 305.52322 311.40625 304.71875 L 311.4375 299.78125 C 312.86199 299.02117 313.83882 297.50889 313.84375 295.78125 C 313.84875 294.0536 312.85765 292.58069 311.4375 291.8125 L 311.46875 286.84375 C 311.47075 286.0393 310.80445 285.40855 310 285.40625 L 308.6875 285.375 z M 327.03125 285.4375 C 326.22679 285.4355 325.53357 286.07057 325.53125 286.875 L 325.53125 291.84375 C 324.09956 292.60156 323.12993 294.07954 323.125 295.8125 C 323.12 297.54546 324.07266 299.04651 325.5 299.8125 L 325.5 304.75 C 325.498 305.55445 326.16428 306.21647 326.96875 306.21875 L 328.28125 306.21875 C 329.0857 306.22075 329.74771 305.55446 329.75 304.75 L 329.75 299.8125 C 331.1745 299.05241 332.18258 297.5714 332.1875 295.84375 C 332.1925 294.11611 331.20139 292.61193 329.78125 291.84375 L 329.78125 286.875 C 329.78325 286.07054 329.1482 285.4398 328.34375 285.4375 L 327.03125 285.4375 z M 345.34375 285.5 C 344.53929 285.498 343.87731 286.13308 343.875 286.9375 L 343.875 291.90625 C 342.44329 292.66406 341.44244 294.11078 341.4375 295.84375 C 341.4325 297.57671 342.41641 299.109 343.84375 299.875 L 343.8125 304.8125 C 343.8105 305.61696 344.47678 306.27896 345.28125 306.28125 L 346.59375 306.28125 C 347.39821 306.28325 348.06022 305.61697 348.0625 304.8125 L 348.09375 299.875 C 349.51825 299.11492 350.49508 297.60264 350.5 295.875 C 350.505 294.14736 349.54515 292.67443 348.125 291.90625 L 348.125 286.9375 C 348.127 286.13304 347.46069 285.50229 346.65625 285.5 L 345.34375 285.5 z M 363.6875 285.53125 C 362.88305 285.52925 362.22105 286.16433 362.21875 286.96875 L 362.1875 291.9375 C 360.75579 292.69531 359.78619 294.17328 359.78125 295.90625 C 359.77625 297.63922 360.76015 299.14027 362.1875 299.90625 L 362.15625 304.84375 C 362.15425 305.6482 362.82054 306.31021 363.625 306.3125 L 364.9375 306.34375 C 365.74196 306.34575 366.40395 305.67947 366.40625 304.875 L 366.4375 299.9375 C 367.86199 299.17742 368.83882 297.66514 368.84375 295.9375 C 368.84875 294.20985 367.85765 292.73693 366.4375 291.96875 L 366.46875 287 C 366.47075 286.19554 365.80445 285.5648 365 285.5625 L 363.6875 285.53125 z M 382.03125 285.59375 C 381.2268 285.59175 380.53355 286.22683 380.53125 287.03125 L 380.53125 292 C 379.09956 292.75781 378.12994 294.23579 378.125 295.96875 C 378.12 297.70171 379.07266 299.20276 380.5 299.96875 L 380.5 304.90625 C 380.498 305.71071 381.16429 306.37271 381.96875 306.375 L 383.28125 306.375 C 384.0857 306.377 384.74771 305.71071 384.75 304.90625 L 384.75 299.96875 C 386.1745 299.20867 387.18258 297.72765 387.1875 296 C 387.1925 294.27236 386.20139 292.76818 384.78125 292 L 384.78125 287.03125 C 384.78325 286.22679 384.14819 285.59605 383.34375 285.59375 L 382.03125 285.59375 z M 400.34375 285.65625 C 399.53929 285.65425 398.87731 286.28933 398.875 287.09375 L 398.875 292.0625 C 397.4433 292.82031 396.44245 294.26704 396.4375 296 C 396.4325 297.73296 397.41641 299.26525 398.84375 300.03125 L 398.84375 304.96875 C 398.84175 305.7732 399.47678 306.43521 400.28125 306.4375 L 401.59375 306.4375 C 402.39821 306.4395 403.09146 305.77322 403.09375 304.96875 L 403.09375 300.03125 C 404.51825 299.27116 405.49506 297.75889 405.5 296.03125 C 405.505 294.30361 404.54514 292.83069 403.125 292.0625 L 403.125 287.09375 C 403.127 286.2893 402.4607 285.65855 401.65625 285.65625 L 400.34375 285.65625 z "
           id="path4740" />
      </g>
      <path
         style="fill:#000000;fill-opacity:0.62745098;fill-rule:evenodd;stroke:none;display:inline;filter:url(#filter6407)"
         id="path5767"
         transform="matrix(1.0001871,0.11395692,-0.11395692,1.0001871,-16.844642,-26.742678)"
         d="m 548.948,283.96648 c 0,104.45459 -84.67717,189.13177 -189.13177,189.13177 -104.45461,0 -189.1318,-84.67718 -189.1318,-189.13177 0,-104.45461 84.67719,-189.13178 189.1318,-189.13178 104.4546,0 189.13177,84.67717 189.13177,189.13178 l 0,0 z m -62.62009,0 c 0,69.87048 -56.6412,126.51168 -126.51168,126.51168 -69.87049,0 -126.51171,-56.6412 -126.51171,-126.51168 0,-69.87047 56.64122,-126.51169 126.51171,-126.51169 69.87048,0 126.51168,56.64122 126.51168,126.51169 z"
         inkscape:connector-curvature="0" />
      <path
         style="fill:url(#linearGradient3203);fill-opacity:1;fill-rule:evenodd;stroke:none;display:inline"
         id="path4906"
         d="m 118.09754,295.19556 c 0.3452,-106.15466 86.6804,-191.93018 192.83507,-191.58497 106.15466,0.3452 191.9302,86.68041 191.58499,192.83507 C 502.17239,402.60033 415.83717,488.37584 309.68251,488.03064 203.52785,487.68543 117.75233,401.35023 118.09754,295.19556 z m 63.63927,0.20695 c 0.23091,-71.00767 57.98117,-128.38355 128.98885,-128.15264 71.00767,0.23091 128.38358,57.98117 128.15267,128.98884 -0.23091,71.00766 -57.9812,128.38356 -128.98887,128.15265 -71.00767,-0.23091 -128.38357,-57.98119 -128.15265,-128.98885 l 0,0 z"
         inkscape:connector-curvature="0" />
      <path
         id="path4343"
         style="fill:#ffffff"
         d="m 390.4309,154.31451 -3.29119,-3.5746 c 1.44444,-1.84851 2.92615,-3.0335 4.44516,-3.55497 1.52578,-0.51725 3.13723,-0.25172 4.83441,0.79656 1.94827,1.20349 3.03166,2.66957 3.25014,4.39829 0.21843,1.72875 -0.16477,3.49548 -1.14958,5.30017 -0.57755,1.05834 -1.27687,1.90736 -2.09793,2.54709 -0.82114,0.63977 -1.76439,1.06256 -2.82975,1.26839 0.44934,0.59038 0.74165,1.13587 0.87693,1.63648 0.22199,0.80743 0.24382,1.70718 0.0655,2.69928 -0.16549,0.98516 -0.55824,2.04589 -1.1783,3.18218 -0.77816,1.42594 -1.75333,2.65571 -2.92549,3.68931 -1.16611,1.02245 -2.37138,1.62598 -3.61579,1.81061 -1.23836,0.17348 -2.55335,-0.16958 -3.945,-1.02918 -1.35771,-0.83866 -2.28744,-1.76298 -2.78918,-2.77298 -0.49496,-1.00582 -0.72344,-2.16727 -0.68545,-3.4844 0.0508,-1.32405 0.3569,-2.83303 0.91826,-4.52698 l 4.63682,1.65762 c -0.58484,1.47089 -0.85342,2.57853 -0.80579,3.32291 0.0605,0.73744 0.35548,1.26971 0.88498,1.59678 0.55666,0.34384 1.20065,0.29477 1.932,-0.14721 0.73811,-0.43776 1.41113,-1.21367 2.01907,-2.32769 0.62007,-1.13629 0.92043,-2.12749 0.90109,-2.97359 -0.0126,-0.84189 -0.32434,-1.45154 -0.93531,-1.82894 -0.32585,-0.20126 -0.84685,-0.34434 -1.56298,-0.4292 l 2.86742,-4.73061 c 0.2004,0.19829 0.36513,0.33721 0.49412,0.41689 0.54306,0.33547 1.14952,0.33025 1.81936,-0.0157 0.67662,-0.34171 1.2277,-0.90247 1.65325,-1.68229 0.4073,-0.74639 0.59678,-1.42625 0.56842,-2.03959 -0.0284,-0.61333 -0.28017,-1.06677 -0.75536,-1.36031 -0.4888,-0.30189 -1.01966,-0.30211 -1.59262,-6.6e-4 -0.5669,0.29035 -1.23598,1.00912 -2.00721,2.15629 m 64.23805,64.7785 -3.11043,-3.77252 c 0.86041,-0.67411 1.40838,-1.26027 1.64389,-1.75854 0.23925,-0.49123 0.25486,-0.93005 0.0469,-1.31647 -0.37449,-0.69555 -1.20747,-0.90613 -2.49897,-0.63173 -0.93143,0.19475 -2.71157,1.00514 -5.34045,2.43115 1.07788,0.0239 1.95206,0.1907 2.62254,0.50036 0.68128,0.3031 1.21295,0.80944 1.595,1.51904 0.74133,1.37704 0.60888,3.00235 -0.39735,4.87596 -1.00249,1.88062 -2.66847,3.5313 -4.99795,4.95205 -1.57106,0.95816 -3.13718,1.59134 -4.69834,1.89954 -1.5574,0.31521 -2.90269,0.2491 -4.03591,-0.19832 -1.1186,-0.44704 -2.02399,-1.3134 -2.71617,-2.5991 -0.83214,-1.54566 -1.09343,-3.03351 -0.78387,-4.46353 0.30954,-1.43003 1.20148,-2.96792 2.6758,-4.6137 1.48894,-1.64537 3.70153,-3.36344 6.63779,-5.15423 4.30142,-2.6234 7.76478,-3.95639 10.39007,-3.99899 2.6361,-0.0492 4.51394,0.96602 5.63357,3.04562 0.6619,1.22951 0.96176,2.33452 0.89958,3.31505 -0.0476,0.98095 -0.36725,1.9645 -0.95892,2.95064 -0.59172,0.98616 -1.46063,1.99207 -2.60674,3.01772 M 439.801,217.66165 c -1.28936,0.78636 -2.18895,1.61499 -2.69876,2.48588 -0.499,0.86427 -0.58395,1.60204 -0.25519,2.21324 0.30259,0.56206 0.88647,0.83124 1.75165,0.80754 0.86518,-0.0237 1.95327,-0.43535 3.2643,-1.23492 1.34351,-0.81941 2.2615,-1.64059 2.75396,-2.46355 0.49244,-0.82296 0.58169,-1.52601 0.26778,-2.10914 -0.32152,-0.59719 -0.93326,-0.89138 -1.83522,-0.88256 -0.89821,0.0158 -1.98114,0.41034 -3.24881,1.18348 m -17.42957,161.88942 7.68621,-12.4434 c 1.92831,1.2429 3.55587,2.70745 4.88268,4.39363 1.33374,1.69904 2.59502,4.20268 3.78383,7.51092 0.73104,2.02368 1.37607,3.41497 1.9351,4.17387 0.559,0.75888 1.18384,1.32679 1.87455,1.70371 0.74638,0.40729 1.48619,0.5841 2.21947,0.53041 0.74018,-0.0409 1.26752,-0.31584 1.58203,-0.82496 0.32705,-0.52952 0.32249,-1.11293 -0.0137,-1.75022 -0.34042,-0.63054 -1.16566,-1.38041 -2.47575,-2.24963 l 3.11771,-3.85366 c 1.81545,1.20854 3.12372,2.32185 3.92484,3.33993 0.8122,1.02414 1.2592,2.08498 1.34095,3.1825 0.0886,1.11035 -0.29892,2.36477 -1.16269,3.76322 -0.90157,1.45952 -1.87477,2.44427 -2.91962,2.95424 -1.04907,0.51672 -2.28433,0.69586 -3.70575,0.53742 -1.41449,-0.14566 -2.82358,-0.6014 -4.22723,-1.36737 -1.4928,-0.81463 -2.75311,-1.86092 -3.78094,-3.13886 -1.03203,-1.2712 -1.92728,-3.05317 -2.68573,-5.34595 -0.43115,-1.35173 -0.74805,-2.2735 -0.9507,-2.76531 -0.20686,-0.48503 -0.49921,-1.0848 -0.87709,-1.7993 l -4.00036,6.47626 -5.54781,-3.02745 m 35.21152,-3.07306 -24.91502,-13.59619 2.59142,-4.19532 16.32594,8.90911 c -0.42733,-1.14089 -0.70572,-2.17325 -0.83513,-3.09708 -0.13362,-0.91707 -0.14433,-1.9849 -0.0321,-3.20347 l 5.58121,3.04569 c -0.12576,1.81931 0.0938,3.40503 0.65875,4.75718 0.56493,1.3521 1.4798,2.66827 2.7446,3.94848 l -2.11968,3.4316 m -67.69819,65.17416 -10.19081,5.48641 -3.22143,-5.282 6.90278,-3.71623 -1.81181,-3.77408 c -0.26631,0.60389 -0.57843,1.11735 -0.9364,1.54038 -0.36499,0.42675 -0.77583,0.76308 -1.2325,1.00895 -1.54565,0.83212 -3.23918,0.78675 -5.08058,-0.13606 -1.84139,-0.92287 -3.4295,-2.47861 -4.76434,-4.66723 -0.93834,-1.53857 -1.59093,-3.1518 -1.95777,-4.8397 -0.37384,-1.68415 -0.33207,-3.14587 0.12529,-4.38521 0.45039,-1.23553 1.38515,-2.23532 2.80434,-2.99937 1.01873,-0.54845 1.98264,-0.8731 2.89173,-0.97392 0.90868,-0.0862 1.79788,0.0252 2.66759,0.33412 0.8693,0.32359 1.69,0.77407 2.46211,1.35148 0.77212,0.57739 1.60388,1.36734 2.49528,2.36987 l -3.89585,3.06889 c -0.75958,-1.01592 -1.5044,-1.70158 -2.23443,-2.05694 -0.72342,-0.34455 -1.35211,-0.3731 -1.88607,-0.0856 -0.59719,0.3215 -0.87752,0.93298 -0.84102,1.83445 0.0361,0.91606 0.47704,2.06755 1.32287,3.45442 0.86565,1.41935 1.69675,2.35359 2.49328,2.80271 0.79654,0.4491 1.52149,0.49776 2.17489,0.14603 0.41451,-0.22319 0.71917,-0.59589 0.91395,-1.11813 0.14928,-0.38262 0.21433,-0.96455 0.19489,-1.74583 l 4.15248,-1.15613 6.45126,13.53871 m 6.6766,-3.05459 -14.77893,-24.23216 4.34189,-2.33754 9.68412,15.87848 c 0.20032,-1.2017 0.47546,-2.23495 0.8253,-3.09971 0.34282,-0.86102 0.86745,-1.79113 1.57393,-2.79034 l 3.31065,5.42827 c -1.01862,1.51266 -1.62132,2.99571 -1.80812,4.4492 -0.18683,1.45342 -0.0526,3.0507 0.40266,4.79178 l -3.5515,1.91202 m -181.05421,-7.16571 13.5962,-24.91502 4.19531,2.59142 -8.90911,16.32595 c 1.14089,-0.42735 2.17325,-0.70572 3.09709,-0.83513 0.91706,-0.13364 1.98488,-0.14433 3.20346,-0.0321 l -3.04569,5.58124 c -1.81931,-0.12586 -3.40503,0.0938 -4.75718,0.65873 -1.35211,0.56494 -2.66827,1.4798 -3.94848,2.74461 l -3.4316,-2.11969 m 24.7871,-18.00246 12.44338,7.68621 c -1.24289,1.92832 -2.70743,3.55587 -4.39362,4.88268 -1.69904,1.33375 -4.20268,2.59503 -7.51092,3.78384 -2.02367,0.73104 -3.41497,1.37607 -4.17388,1.93509 -0.75887,0.559 -1.32677,1.18385 -1.7037,1.87456 -0.40729,0.74638 -0.58409,1.4862 -0.53042,2.21946 0.0409,0.74018 0.31586,1.26752 0.82497,1.58203 0.52953,0.32706 1.11293,0.3225 1.75023,-0.0137 0.63054,-0.34041 1.38041,-1.16566 2.24962,-2.47574 l 3.85367,3.1177 c -1.20854,1.81545 -2.32186,3.12374 -3.33995,3.92484 -1.02413,0.81221 -2.08496,1.25919 -3.18249,1.34095 -1.11036,0.0887 -2.36476,-0.29892 -3.76322,-1.16269 -1.45951,-0.90156 -2.44426,-1.87477 -2.95424,-2.91962 -0.51672,-1.04907 -0.69585,-2.28432 -0.53742,-3.70574 0.14557,-1.41452 0.60141,-2.82358 1.36736,-4.22724 0.81465,-1.49279 1.86093,-2.7531 3.13887,-3.78093 1.27119,-1.03203 3.05317,-1.92728 5.34595,-2.68575 1.35174,-0.43115 2.27351,-0.74804 2.76531,-0.95069 0.48503,-0.20685 1.0848,-0.49921 1.79931,-0.8771 l -6.47627,-4.00036 3.02746,-5.5478 m -58.70508,-57.23005 4.20983,7.81963 -5.44452,3.32055 -18.54436,0.92286 -2.01414,-3.7412 14.64332,-8.93081 -1.04395,-1.93909 5.13573,-3.13224 1.04395,1.9391 4.45311,-2.71591 2.01415,3.7412 -4.45312,2.71591 m -5.13573,3.13223 -7.4923,4.56948 9.71636,-0.43836 -2.22406,-4.13112 m 14.55895,3.38366 6.93319,12.87814 c -2.04053,1.04853 -4.12265,1.72576 -6.24633,2.03172 -2.13828,0.30553 -4.93713,0.146 -8.39656,-0.47858 -2.11809,-0.37873 -3.64548,-0.51579 -4.58223,-0.41108 -0.93671,0.10466 -1.74096,0.36185 -2.41274,0.77156 -0.7259,0.44273 -1.24894,0.99504 -1.56908,1.65689 -0.33471,0.66146 -0.36023,1.25564 -0.0766,1.78257 0.29505,0.54801 0.80257,0.83576 1.52257,0.86325 0.71629,0.0204 1.77832,-0.31929 3.18611,-1.01924 l 1.77852,4.62683 c -1.95435,0.96796 -3.57265,1.54432 -4.85489,1.72905 -1.29304,0.19132 -2.43524,0.048 -3.42659,-0.42997 -1.00594,-0.4784 -1.8985,-1.44125 -2.67771,-2.88853 -0.81319,-1.51054 -1.17941,-2.84573 -1.09863,-4.00559 0.0771,-1.16687 0.53952,-2.3262 1.38746,-3.47798 0.83335,-1.15219 1.93261,-2.14459 3.29778,-2.9772 1.45189,-0.88548 2.98816,-1.45379 4.60881,-1.70495 1.61689,-0.25818 3.60776,-0.1425 5.97259,0.34705 1.38621,0.30248 2.34295,0.48893 2.87017,0.55932 0.52344,0.0637 1.18908,0.11012 1.99681,0.14005 l -3.60844,-6.70253 5.39576,-3.29082 M 177.7896,216.10929 c -4.65659,-2.5411 -7.60059,-4.82841 -8.83204,-6.86194 -1.22721,-2.04029 -1.19508,-4.10587 0.0964,-6.19676 0.62061,-1.00468 1.33618,-1.71703 2.14671,-2.13702 0.79942,-0.42604 1.65356,-0.66339 2.56241,-0.71206 0.89774,-0.0547 1.77994,1.3e-4 2.64661,0.16445 0.85974,0.1515 1.81267,0.41736 2.85877,0.79759 1.99892,0.71868 3.98986,1.61906 5.97281,2.70114 4.44492,2.42563 7.41482,4.65899 8.90967,6.70009 1.49484,2.04112 1.55038,4.18178 0.16662,6.422 -0.77576,1.25587 -1.73129,2.09142 -2.86658,2.50663 -1.13531,0.41523 -2.491,0.5241 -4.06709,0.32664 -1.12465,-0.13217 -2.52959,-0.52265 -4.21503,-1.17009 -1.69236,-0.66031 -3.48545,-1.50719 -5.37929,-2.54067 m 2.55783,-4.10472 c 3.11925,1.70219 5.35533,2.70004 6.70824,2.99356 1.34596,0.28066 2.21602,0.10193 2.61019,-0.5362 0.25997,-0.42088 0.24479,-0.91477 -0.0455,-1.48167 -0.29728,-0.57975 -0.92548,-1.22662 -1.8846,-1.94066 -0.95492,-0.72077 -2.54083,-1.68605 -4.75774,-2.89584 -3.25292,-1.77511 -5.54123,-2.79693 -6.86491,-3.06544 -1.33061,-0.28134 -2.2035,-0.086 -2.61863,0.58605 -0.42352,0.68566 -0.15587,1.4943 0.80282,2.42592 0.94762,0.9256 2.96435,2.23035 6.05016,3.91428 m -13.74108,11.24958 -3.57461,3.29118 c -1.8485,-1.44442 -3.03348,-2.92613 -3.55497,-4.44515 -0.51724,-1.52578 -0.25172,-3.13724 0.79657,-4.83439 1.20348,-1.94828 2.66958,-3.03167 4.39829,-3.25015 1.72875,-0.21843 3.49547,0.16476 5.30018,1.14958 1.05832,0.57754 1.90735,1.27685 2.54709,2.09793 0.63974,0.82113 1.06254,1.76438 1.26837,2.82976 0.59037,-0.44935 1.13588,-0.74167 1.63649,-0.87695 0.80741,-0.22198 1.70718,-0.24382 2.69928,-0.0655 0.98516,0.16549 2.04589,0.55824 3.18218,1.1783 1.42595,0.77816 2.65571,1.75332 3.68931,2.92548 1.02244,1.16612 1.62599,2.37137 1.81061,3.61579 0.17348,1.23836 -0.16958,2.55336 -1.02918,3.945 -0.83866,1.35772 -1.76298,2.28744 -2.77299,2.78918 -1.00582,0.49496 -2.16727,0.72345 -3.48438,0.68546 -1.32405,-0.0508 -2.83304,-0.35691 -4.52698,-0.91826 l 1.65761,-4.63682 c 1.47089,0.58483 2.57852,0.85342 3.32292,0.80579 0.73743,-0.0605 1.2697,-0.35548 1.59677,-0.88499 0.34384,-0.55665 0.29478,-1.20065 -0.14721,-1.93199 -0.43778,-0.73811 -1.21367,-1.41114 -2.32769,-2.01907 -1.13629,-0.62007 -2.12749,-0.92044 -2.97359,-0.90109 -0.8419,0.0126 -1.45154,0.32434 -1.82894,0.9353 -0.20127,0.32587 -0.34434,0.84685 -0.4292,1.56299 l -4.73062,-2.86743 c 0.1983,-0.2004 0.33722,-0.36512 0.4169,-0.49411 0.33547,-0.54306 0.33024,-1.14952 -0.0157,-1.81937 -0.3417,-0.67661 -0.90247,-1.22768 -1.68229,-1.65325 -0.74638,-0.40729 -1.42624,-0.59676 -2.0396,-0.56841 -0.61331,0.0283 -1.06675,0.28018 -1.36029,0.75536 -0.3019,0.48879 -0.30211,1.01967 -6.6e-4,1.59262 0.29035,0.5669 1.0091,1.23597 2.15628,2.00721 m 69.42996,-70.3499 -4.74129,1.06296 c -0.87864,-2.17516 -1.16401,-4.05086 -0.85612,-5.62711 0.31495,-1.57997 1.35063,-2.84278 3.10705,-3.78841 2.01639,-1.08553 3.82776,-1.29072 5.43411,-0.61557 1.60635,0.67521 2.94478,1.89042 4.01529,3.64564 0.62777,1.02933 1.01339,2.05947 1.15688,3.09042 0.14348,1.03099 0.038,2.05927 -0.31645,3.08482 0.73596,-0.094 1.35452,-0.0744 1.85571,0.0588 0.81023,0.21147 1.60037,0.64244 2.3704,1.2929 0.77044,0.63588 1.49267,1.50639 2.1667,2.61153 0.84581,1.38688 1.42325,2.84627 1.73229,4.3782 0.30241,1.52111 0.22246,2.86666 -0.23985,4.03667 -0.46895,1.1592 -1.42355,2.12648 -2.86381,2.90188 -1.40515,0.75648 -2.6705,1.09948 -3.79607,1.029 -1.11854,-0.0742 -2.23863,-0.45711 -3.36028,-1.14856 -1.12124,-0.70607 -2.27502,-1.72565 -3.46135,-3.05872 l 3.75394,-3.18681 c 0.98141,1.24192 1.80635,2.02835 2.47482,2.35929 0.66889,0.31634 1.27734,0.32699 1.82535,0.032 0.5761,-0.31015 0.85561,-0.8924 0.83853,-1.74675 -0.0101,-0.85812 -0.34552,-1.82892 -1.00633,-2.91241 -0.67402,-1.10515 -1.38224,-1.86087 -2.12465,-2.26716 -0.73539,-0.41007 -1.41924,-0.44488 -2.05155,-0.10449 -0.33725,0.18158 -0.72165,0.56124 -1.1532,1.13899 l -2.66313,-4.84857 c 0.27193,-0.0744 0.4746,-0.14758 0.6081,-0.21945 0.56207,-0.30258 0.86076,-0.83041 0.89612,-1.58347 0.0423,-0.75681 -0.16772,-1.51445 -0.63028,-2.2729 -0.44274,-0.72593 -0.93679,-1.22993 -1.48213,-1.51205 -0.54536,-0.28207 -1.06394,-0.29074 -1.55574,-0.026 -0.50585,0.27234 -0.77147,0.73198 -0.79688,1.3789 -0.032,0.63614 0.25593,1.57495 0.86378,2.81644 m -14.41674,7.76156 -4.74129,1.06295 c -0.87864,-2.17514 -1.16401,-4.05086 -0.85612,-5.6271 0.31495,-1.57998 1.35063,-2.84278 3.10705,-3.78842 2.01639,-1.08552 3.82775,-1.29071 5.43411,-0.61556 1.60635,0.67521 2.94479,1.89042 4.01529,3.64563 0.62776,1.02933 1.01339,2.05948 1.15688,3.09043 0.14348,1.03099 0.038,2.05927 -0.31644,3.08482 0.73594,-0.094 1.35451,-0.0744 1.8557,0.0588 0.81024,0.21147 1.60036,0.64243 2.3704,1.2929 0.77044,0.63588 1.49267,1.50638 2.1667,2.61153 0.84582,1.38687 1.42325,2.84626 1.73229,4.37819 0.30241,1.52112 0.22246,2.86667 -0.23984,4.03668 -0.46895,1.1592 -1.42356,2.12648 -2.86382,2.90187 -1.40515,0.75649 -2.67051,1.09949 -3.79606,1.02901 -1.11853,-0.0743 -2.23864,-0.45711 -3.36028,-1.14857 -1.12125,-0.70606 -2.27503,-1.72564 -3.46137,-3.05872 l 3.75395,-3.1868 c 0.98141,1.24192 1.80635,2.02835 2.47482,2.35929 0.66889,0.31634 1.27735,0.32699 1.82535,0.032 0.5761,-0.31016 0.85561,-0.89241 0.83852,-1.74674 -0.0101,-0.85812 -0.34551,-1.82893 -1.00631,-2.91242 -0.67403,-1.10515 -1.38225,-1.86087 -2.12467,-2.26717 -0.73538,-0.41005 -1.41924,-0.44488 -2.05155,-0.10447 -0.33723,0.18156 -0.72163,0.56123 -1.1532,1.13898 l -2.66311,-4.84856 c 0.27193,-0.0744 0.4746,-0.1476 0.60809,-0.21947 0.56207,-0.30257 0.86077,-0.83039 0.89612,-1.58346 0.0423,-0.75681 -0.16772,-1.51444 -0.63028,-2.2729 -0.44274,-0.72592 -0.93679,-1.22994 -1.48214,-1.51205 -0.54534,-0.28207 -1.06393,-0.29074 -1.55573,-0.026 -0.50585,0.27235 -0.77147,0.73199 -0.79689,1.37891 -0.032,0.63613 0.25593,1.57494 0.8638,2.81644 m 80.86461,-33.05462 5.37009,0.0175 6.95283,16.91462 0.0549,-16.89183 5.42088,0.0176 -0.0993,30.53443 -5.42087,-0.0176 -6.91516,-16.78952 -0.0545,16.76686 -5.40818,-0.0176 0.0993,-30.53443 m 177.86136,159.99579 -0.0501,15.41202 -6.51929,-0.0212 0.0314,-9.64838 -4.85302,-0.0158 -0.0291,8.95016 -6.22769,-0.0203 0.0291,-8.95015 -6.01941,-0.0196 -0.0323,9.92768 -6.91504,-0.0225 0.051,-15.69132 30.53443,0.0993 m -161.3231,152.95646 -5.47348,0.54457 c -0.11374,-1.45837 -0.35134,-2.57 -0.7128,-3.33489 -0.58842,-1.23775 -1.43276,-1.8584 -2.53302,-1.86199 -0.82095,-0.003 -1.45249,0.3077 -1.89464,0.93113 -0.45063,0.63727 -0.6773,1.37248 -0.68003,2.20562 -0.003,0.79149 0.20673,1.50033 0.62786,2.12657 0.42115,0.62621 1.401,1.21953 2.93953,1.77998 2.51911,0.93853 4.31359,2.18019 5.38342,3.72501 1.07833,1.5448 1.6136,3.51138 1.60584,5.89972 -0.005,1.56904 -0.28496,3.04697 -0.83962,4.43376 -0.56316,1.40061 -1.40038,2.49485 -2.51167,3.28275 -1.11979,0.8017 -2.64877,1.19943 -4.58691,1.19314 -2.37824,-0.008 -4.18705,-0.74264 -5.42646,-2.20464 -1.24788,-1.4482 -1.98517,-3.75563 -2.21187,-6.92229 l 5.42256,-0.50308 c 0.13942,1.37511 0.44086,2.37587 0.9043,3.00226 0.45502,0.6263 1.08876,0.94079 1.90124,0.94346 0.66863,0.002 1.17297,-0.23226 1.51305,-0.70325 0.34003,-0.45715 0.51112,-1.01896 0.51329,-1.68545 0.002,-0.48601 -0.13664,-0.92387 -0.41468,-1.31355 -0.26952,-0.40358 -0.91153,-0.78059 -1.92602,-1.13101 -2.51076,-0.89686 -4.30631,-1.80528 -5.38668,-2.72524 -1.08883,-0.90613 -1.87651,-2.03343 -2.36304,-3.38191 -0.49494,-1.34854 -0.73971,-2.85594 -0.73432,-4.52221 0.006,-1.95787 0.34236,-3.76192 1.00784,-5.41215 0.66554,-1.65024 1.59216,-2.90389 2.77983,-3.76094 1.18766,-0.84317 2.68284,-1.26182 4.48556,-1.25596 3.16535,0.0103 5.35413,1.01718 6.56638,3.02067 1.21224,2.00348 1.89376,4.54679 2.04454,7.62992 m -177.5055,-133.59336 0.0178,-5.45896 17.06485,-1.91229 -17.04912,-2.92461 0.0177,-5.44625 17.06782,-2.82635 -17.05205,-2.02325 0.0177,-5.43357 30.52109,4.19987 -0.0183,5.63668 -19.23522,3.20016 19.21404,3.3125 -0.0183,5.63669 -30.54787,4.03936"
         inkscape:connector-curvature="0" />
      <path
         id="path5242"
         style="fill:none;stroke:#ffffff;stroke-width:4;stroke-linecap:round;stroke-linejoin:miter;stroke-miterlimit:4;stroke-opacity:1;stroke-dasharray:none"
         d="m 488.87477,359.57429 -17.05427,-6.27012 m -38.429,86.68017 -11.63436,-13.95721 m -175.98293,47.64144 6.27013,-17.05426 m -87.53126,-39.90734 13.95721,-11.63436 m -45.21128,-175.89381 17.05426,6.27012 m 39.73454,-86.43248 11.63435,13.95721 m 175.01696,-44.34936 -6.27013,17.05426 m 129.06882,160.75761 -22.09699,-0.0719 m 19.11583,32.91614 -21.7488,-3.90788 m -0.92518,65.57937 -19.10061,-11.11074 m 0.0967,38.06413 -16.88106,-14.25874 M 404.63974,460.26498 393.6535,441.0925 m -19.12754,33.26707 -7.49009,-20.78894 m -57.34971,31.44663 0.0719,-22.09699 m -32.91612,19.11583 3.90787,-21.74879 m -65.57937,-0.92519 11.11072,-19.10063 m -38.0641,0.0967 14.25871,-16.88107 m -56.33081,-33.59091 19.1725,-10.98628 m -33.01286,-18.94826 20.78896,-7.49011 m -31.98848,-57.25596 22.09699,0.0718 m -19.11582,-32.91609 21.74881,3.90786 m 0.92515,-65.57935 19.10065,11.11072 m -0.0968,-38.0641 16.88111,14.25871 m 33.59089,-56.33081 10.98627,19.17249 m 18.94826,-33.01285 7.4901,20.78896 m 57.25595,-31.98847 -0.0718,22.097 m 32.9161,-19.11584 -3.90786,21.7488 m 65.57935,0.92516 -11.11071,19.10063 m 38.06409,-0.0967 -14.2587,16.88109 m 37.5026,6.51449 -13.95719,11.63435 m 32.78537,15.44205 -19.17247,10.98627 m 33.01285,18.94827 -20.78895,7.49009 m 31.32221,40.76403 -13.08572,1.10207 m 13.61797,31.92425 -13.07827,-1.18699 m 7.27242,33.7997 -12.67346,-3.43998 m 1.29316,34.39352 -11.88357,-5.58845 m -4.82558,34.27534 -10.73262,-7.56711 m -11.08737,32.3814 -9.25554,-9.31585 m -15.69083,30.83901 -7.49724,-10.78155 m -21.0281,27.58217 -5.51115,-11.91961 m -25.75122,23.02748 -3.35761,-12.69552 m -29.37867,17.57687 -1.10204,-13.08571 m -32.10404,13.49123 1.18702,-13.07826 m -33.41949,6.73313 3.44,-12.67345 m -34.90052,2.0122 5.58846,-11.88357 m -34.24883,-4.67235 7.56714,-10.73259 m -32.10144,-11.29367 9.31585,-9.25552 m -30.43227,-16.07687 10.78155,-7.49723 M 138.5713,375.22112 150.49093,369.71 m -23.09836,-25.51577 12.69552,-3.35759 m -18.31669,-29.1391 13.0857,-1.10203 m -12.97845,-31.87709 13.07826,1.18704 m -7.24588,-33.64648 12.67343,3.44001 m -1.29314,-34.39354 11.88354,5.58846 m 4.69888,-34.09557 10.73257,7.5671 m 9.98236,-33.29511 9.25549,9.31584 m 16.05039,-30.5855 7.4972,10.78153 m 21.32343,-26.89821 5.51111,11.9196 m 25.64252,-23.27809 3.35755,12.69549 m 29.39843,-17.73015 1.102,13.08567 m 31.8771,-12.97843 -1.18705,13.07823 m 33.64649,-7.24585 -3.44001,12.6734 m 34.92703,-1.8589 -5.58847,11.88351 m 33.56211,5.2647 -7.56714,10.73255 m 33.32166,10.13562 -9.31587,9.25548 m 29.87227,16.48946 -10.78153,7.49718 m 27.89142,20.67814 -11.9196,5.51107 m 22.99811,25.84883 -12.6955,3.35753 m -344.31539,75.13122 -12.93983,2.23828 m 372.85771,-64.49536 -12.93983,2.23826 m -143.47314,203.53591 2.23827,12.93983 m -64.49538,-372.8577 2.23828,12.93982"
         inkscape:connector-curvature="0" />
      <g
         id="Bug">
        <path
           id="path6378"
           d="m 307.40625,102.28125 c -6.26272,0.083 -12.49191,0.59316 -18.75,1.5 l -0.0625,13.96875 10.6875,1.78125 9.03125,12.125 7.4375,-11.9375 11.15625,-2.75 -0.59375,-13.65625 c -6.35785,-0.77375 -12.64353,-1.11427 -18.90625,-1.03125 z"
           style="fill:none;stroke:#000000;stroke-width:5;stroke-linecap:butt;stroke-linejoin:round;stroke-miterlimit:4;stroke-opacity:0.62745098;stroke-dasharray:none;display:inline;filter:url(#filter6380)"
           inkscape:connector-curvature="0" />
        <path
           id="path4928"
           d="m 308.28125,101.1875 c -6.26272,0.083 -12.49192,0.59315 -18.75,1.5 l -0.0937,13.96875 10.6875,1.78125 9.03125,12.125 7.4375,-11.9375 11.15625,-2.75 -0.5625,-13.65625 c -6.35785,-0.77375 -12.64353,-1.11427 -18.90625,-1.03125 z"
           style="fill:none;stroke:#f79239;stroke-width:5;stroke-linecap:butt;stroke-linejoin:round;stroke-miterlimit:4;stroke-opacity:1;stroke-dasharray:none;display:inline"
           inkscape:connector-curvature="0" />
      </g>
      <g
         id="CDINeedle">
        <path
           style="fill:#000000;fill-opacity:0.62745098;stroke:none;filter:url(#filter5839)"
           d="m 310.46875,139.625 c -0.98353,-0.003 -1.61,0.85868 -2.03125,2.3125 -2.12312,7.32731 -4.17822,14.59847 -7.34375,21.8125 -0.40579,0.92476 0.47617,2.42081 0.0312,3.34375 -1.06833,2.21613 -2.25076,4.41931 -3.59375,6.625 -3.07592,5.05181 -0.61005,5.20641 3.71875,5.21875 l 5.875,0 -0.0625,27.46875 c -0.003,1.18919 0.96706,2.12161 2.15625,2.125 l 4.75,0.0312 c 1.1892,0.003 2.15286,-0.9358 2.15625,-2.125 l 0.0625,-27.46875 5.875,0.0312 c 4.3288,0.0123 6.82832,-0.11824 3.78125,-5.1875 -1.2551,-2.08803 -2.36614,-4.18532 -3.375,-6.28125 -0.27128,-0.56304 -1.86904,-1.68627 -2.125,-2.25 -3.5022,-7.71369 -5.62175,-15.47716 -7.84375,-23.3125 -0.41296,-1.4562 -1.04771,-2.34095 -2.03125,-2.34375 z"
           id="path5837"
           inkscape:connector-curvature="0" />
        <path
           style="fill:#d5cc24;fill-opacity:1;stroke:none"
           d="m 309.71875,138.78125 c -0.98353,-0.003 -1.64126,0.85868 -2.0625,2.3125 -3.0488,10.52198 -5.9221,20.92867 -12.1875,31.21875 -3.07593,5.05181 -0.61005,5.17516 3.71875,5.1875 l 5.875,0.0312 L 305,205 c -0.003,1.18918 0.93581,2.12161 2.125,2.125 l 4.75,0 c 1.1892,0.003 2.1841,-0.90455 2.1875,-2.09375 l 0.0625,-27.46875 5.875,0 c 4.3288,0.0123 6.82832,-0.087 3.78125,-5.15625 -6.20663,-10.32565 -9.07373,-20.74207 -12.0625,-31.28125 -0.41296,-1.45619 -1.01646,-2.34095 -2,-2.34375 z"
           id="rect4683"
           inkscape:connector-curvature="0" />
        <path
           style="fill:#000000;fill-opacity:0.58823529;stroke:none;filter:url(#filter5833)"
           d="m 309.5625,386.03125 c -1.1892,-0.003 -2.15286,0.9358 -2.15625,2.125 l -0.0937,35.78125 -1.6875,2.65625 -0.0312,8.28125 2.4375,15.5 c 0.28072,1.19 0.97024,2.1542 1.6875,2.15625 0.71726,0.002 1.18012,-0.87375 1.5625,-2.125 l 3.375,-15.5 0,-7.9375 1.6875,-2.9375 0.125,-35.84375 c 0.003,-1.18919 -0.96706,-2.15286 -2.15625,-2.15625 l -4.75,0 z"
           id="path5831"
           inkscape:connector-curvature="0" />
        <path
           style="fill:#d5cc24;fill-opacity:1;stroke:none"
           d="m 306.625,383.53125 c -1.1892,-0.003 -2.15325,0.96705 -2.15625,2.15625 l -0.125,46.125 2.4375,15.5 c 0.28073,1.19 0.97024,2.15425 1.6875,2.15625 0.71725,0.002 1.18012,-0.87375 1.5625,-2.125 l 3.375,-15.5 0.125,-46.125 c 0.003,-1.18918 -0.93581,-2.15325 -2.125,-2.15625 l -4.78125,-0.0312 z"
           id="rect4692"
           inkscape:connector-curvature="0" />
        <g
           id="CDIBar">
          <path
             style="fill:#000000;fill-opacity:0.62745098;stroke:none;filter:url(#filter5775)"
             d="m 308.59375,211.96875 c -1.1892,-0.003 -2.15286,0.9358 -2.15625,2.125 l -0.46875,168.21875 c -0.003,1.1892 0.9358,2.15286 2.125,2.15625 l 4.78125,0 c 1.1892,0.003 2.15286,-0.9358 2.15625,-2.125 L 315.5,214.125 c 0.003,-1.1892 -0.96705,-2.15286 -2.15625,-2.15625 l -4.75,0 z"
             id="rect5773"
             inkscape:connector-curvature="0" />
          <path
             style="fill:#d5cc24;fill-opacity:1;stroke:none"
             d="m 306.65625,209 c -1.1892,-0.003 -2.15286,0.9358 -2.15625,2.125 l -0.46875,168.21875 c -0.003,1.1892 0.9358,2.15286 2.125,2.15625 l 4.78125,0 c 1.1892,0.003 2.15286,-0.9358 2.15625,-2.125 l 0.46875,-168.21875 c 0.003,-1.1892 -0.96705,-2.15286 -2.15625,-2.15625 l -4.75,0 z"
             id="rect4681"
             inkscape:connector-curvature="0" />
        </g>
      </g>
    </g>
    <g
       inkscape:groupmode="layer"
       id="layer4"
       inkscape:label="NAV"
       style="display:inline">
      <path
         style="fill:#000000;fill-opacity:0.62745098;stroke:none;filter:url(#filter5825)"
         id="path5823"
         d="m 261.82592,112.92447 c 4.05728,0 7.3125,3.34931 7.3125,7.52385 l 0,23.40754 c 0,7.77329 -6.07007,14.0188 -13.625,14.0188 l -78.5625,0 c -4.05728,0 -7.3125,-3.3493 -7.3125,-7.52385 l 0,-29.90249 c 0,-4.17454 3.25522,-7.52385 7.3125,-7.52385 l 84.875,0 0,0 z"
         inkscape:connector-curvature="0" />
      <g
         id="g4349"
         transform="translate(-107.2808,-90.157915)">
        <path
           inkscape:connector-curvature="0"
           d="m 366.30724,198.41659 c 4.05728,0 7.3125,3.34931 7.3125,7.52385 l 0,23.40754 c 0,7.77329 -6.07007,14.0188 -13.625,14.0188 l -78.5625,0 c -4.05728,0 -7.3125,-3.3493 -7.3125,-7.52385 l 0,-29.90249 c 0,-4.17454 3.25522,-7.52385 7.3125,-7.52385 l 84.875,0 0,0 z"
           id="path4916"
           style="fill:#ee3a42;fill-opacity:1;stroke:none" />
        <g
           transform="matrix(0.8753532,0,0,1.142396,59.463216,105.79159)"
           id="text5815"
           style="font-size:22.75918388px;font-style:normal;font-variant:normal;font-weight:normal;font-stretch:normal;text-align:center;text-anchor:middle;fill:#ededed;fill-opacity:1;stroke:#b8b8b8;stroke-opacity:0.74509804;font-family:DejaVu Sans;-inkscape-font-specification:DejaVu Sans">
          <path
             inkscape:connector-curvature="0"
             d="m 301.15326,96.602604 3.0227,0 7.35673,13.879986 0,-13.879986 2.17813,0 0,16.591536 -3.02271,0 -7.35673,-13.879993 0,13.879993 -2.17812,0 0,-16.591536"
             id="path4440" />
          <path
             inkscape:connector-curvature="0"
             d="m 323.72352,98.814067 -3.04493,8.256873 6.10098,0 -3.05605,-8.256873 m -1.26687,-2.211463 2.54485,0 6.32323,16.591536 -2.3337,0 -1.51135,-4.25624 -7.47897,0 -1.51135,4.25624 -2.36705,0 6.33434,-16.591536"
             id="path4442" />
          <path
             inkscape:connector-curvature="0"
             d="m 336.54779,113.19414 -6.33434,-16.591536 2.34481,0 5.2564,13.968896 5.2675,-13.968896 2.33371,0 -6.32323,16.591536 -2.54485,0"
             id="path4444" />
        </g>
      </g>
    </g>
    <g
       inkscape:groupmode="layer"
       id="layer5"
       inkscape:label="HDG"
       style="display:inline">
      <path
         style="fill:#000000;fill-opacity:0.62745098;stroke:none;filter:url(#filter5825)"
         id="path5829"
         transform="matrix(-1,0,0,1,662.59442,15.63368)"
         d="m 309.6435,97.290794 c 4.05728,0 7.3125,3.349306 7.3125,7.523846 l 0,23.40754 c 0,7.77329 -6.07007,14.0188 -13.625,14.0188 l -78.5625,0 c -4.05728,0 -7.3125,-3.3493 -7.3125,-7.52385 l 0,-29.90249 c 0,-4.17454 3.25522,-7.523846 7.3125,-7.523846 l 84.875,0 0,0 z"
         inkscape:connector-curvature="0" />
      <g
         id="g4356"
         transform="translate(-107.2808,-90.157915)">
        <path
           inkscape:connector-curvature="0"
           d="m 461.74447,198.41659 c -4.05728,0 -7.3125,3.34931 -7.3125,7.52385 l 0,23.40754 c 0,7.77329 6.07007,14.0188 13.625,14.0188 l 78.5625,0 c 4.05728,0 7.3125,-3.3493 7.3125,-7.52385 l 0,-29.90249 c 0,-4.17454 -3.25522,-7.52385 -7.3125,-7.52385 l -84.875,0 0,0 z"
           id="rect4908"
           style="fill:#ee3a42;fill-opacity:1;stroke:none" />
        <g
           transform="matrix(0.8753532,0,0,1.142396,59.463216,105.79159)"
           id="text5819"
           style="font-size:22.75918388px;font-style:normal;font-variant:normal;font-weight:normal;font-stretch:normal;text-align:center;text-anchor:middle;fill:#ededed;fill-opacity:1;stroke:#b8b8b8;stroke-opacity:0.74509804;font-family:DejaVu Sans;-inkscape-font-specification:DejaVu Sans">
          <path
             inkscape:connector-curvature="0"
             d="m 467.49728,96.602604 2.2448,0 0,6.801086 8.15686,0 0,-6.801086 2.2448,0 0,16.591536 -2.2448,0 0,-7.90126 -8.15686,0 0,7.90126 -2.2448,0 0,-16.591536"
             id="path4433" />
          <path
             inkscape:connector-curvature="0"
             d="m 486.85592,98.447342 0,12.902058 2.71155,0 c 2.28924,0 3.96358,-0.5186 5.02302,-1.5558 1.06682,-1.0372 1.60024,-2.6745 1.60026,-4.9119 -2e-5,-2.22256 -0.53344,-3.84875 -1.60026,-4.87855 -1.05944,-1.037192 -2.73378,-1.555793 -5.02302,-1.555808 l -2.71155,0 m -2.2448,-1.844738 4.61185,0 c 3.21532,1.6e-5 5.57495,0.670493 7.0789,2.011431 1.50393,1.33356 2.2559,3.422775 2.25592,6.267665 -2e-5,2.85972 -0.75569,4.96005 -2.26703,6.30101 -1.51136,1.34095 -3.86729,2.01143 -7.06779,2.01143 l -4.61185,0 0,-16.591536"
             id="path4435" />
          <path
             inkscape:connector-curvature="0"
             d="m 513.43794,110.82709 0,-4.45626 -3.66725,0 0,-1.84474 5.88983,0 0,7.12336 c -0.86682,0.61491 -1.82253,1.08165 -2.86713,1.40022 -1.04462,0.31116 -2.15961,0.46674 -3.34498,0.46674 -2.59301,0 -4.62296,-0.75567 -6.08986,-2.26703 -1.45949,-1.51875 -2.18923,-3.6302 -2.18923,-6.33434 0,-2.71153 0.72974,-4.82298 2.18923,-6.334343 1.4669,-1.518745 3.49685,-2.278124 6.08986,-2.278141 1.08165,1.7e-5 2.10774,0.133371 3.07827,0.400064 0.97792,0.266725 1.87807,0.65938 2.70043,1.177965 l 0,2.389265 c -0.82977,-0.703797 -1.71139,-1.233511 -2.64486,-1.589137 -0.9335,-0.355598 -1.91513,-0.533404 -2.94492,-0.533419 -2.02996,1.5e-5 -3.55613,0.566772 -4.5785,1.700271 -1.01499,1.133525 -1.52247,2.822685 -1.52247,5.067475 0,2.2374 0.50748,3.92285 1.52247,5.05636 1.02237,1.13352 2.54854,1.70027 4.5785,1.70027 0.79271,0 1.50023,-0.0667 2.12256,-0.20003 0.62231,-0.14076 1.18166,-0.35561 1.67805,-0.64455"
             id="path4437" />
        </g>
      </g>
    </g>
    <g
       id="g4333"
       transform="translate(-107.2808,-90.157915)">
      <path
         style="fill:#000000;fill-opacity:0.59420286;stroke:none;filter:url(#filter6028)"
         id="path6024"
         d="m 660.52297,271.38759 -3.40773,7.67141 -74.66386,-0.47947 c -33.58313,-51.48721 -95.5111,-91.6114 -166.08899,-91.6114 -48.21862,0 -125.63463,23.44105 -161.09652,89.4184 l -79.42253,2.59516 19.56127,-22.05728 c 4.24034,-66.78055 116.44703,-80.51749 219.6381,-89.09172 126.57234,9.05437 284.01143,23.57577 245.48026,103.5549 z"
         inkscape:connector-curvature="0" />
      <path
         inkscape:connector-curvature="0"
         d="m 658.7997,276.0648 -60.71429,0 c -33.32738,-54.22399 -85.4835,-85.65532 -155,-96.07143 l -51.07993,0 c -69.5165,10.41611 -121.67262,41.84744 -155,96.07143 l -60.71429,0 c 22.85819,-105.04425 114.19587,-137.19098 239.63859,-133.03234 84.57079,3.10223 217.01886,-2.35578 242.86992,133.03234 z"
         id="path4993"
         style="fill:url(#radialGradient5462);fill-opacity:1;stroke:none" />
      <path
         inkscape:connector-curvature="0"
         d="m 391.35823,150.17707 51.92431,0 0.93316,22.22336 -53.79063,0 0.93316,-22.22336 0,0 z"
         id="rect4991"
         style="fill:#616161;fill-opacity:1;stroke:none" />
      <rect
         width="53.790623"
         height="22.223356"
         rx="0"
         ry="0"
         x="390.42508"
         y="171.13774"
         id="rect4989"
         style="fill:#b1b1b1;fill-opacity:1;stroke:none" />
      <path
         inkscape:connector-curvature="0"
         d="m 415.41992,179.53897 0,77.49436 1.24421,4.97684 0,42.06004 c 0,1.20412 0.95213,2.15625 2.15625,2.15625 l 1,0 c 1.20412,0 2.1875,-0.95213 2.1875,-2.15625 l 0,-42.37109 -1.24421,-4.66579 0,-77.55686 -5.34375,0.0625 z"
         id="path5347"
         style="fill:#000000;fill-opacity:0.58823529;stroke:none;display:inline;filter:url(#filter5349)" />
      <path
         inkscape:connector-curvature="0"
         d="m 411.41413,166.72909 3.25,6.8125 0,124.53125 c 0,1.20412 0.95213,2.15625 2.15625,2.15625 l 1,0 c 1.20412,0 2.1875,-0.95213 2.1875,-2.15625 l 0,-124.59375 3.21875,-6.75 -11.8125,0 z m 198.42616,96.81502 3.2484,-0.34276 c 0.0703,0.88867 0.21355,1.56576 0.42961,2.03125 0.35171,0.75326 0.85418,1.12988 1.50738,1.12988 0.48737,0 0.8617,-0.19043 1.12299,-0.57129 0.2663,-0.38932 0.39945,-0.83788 0.39946,-1.3457 -10e-6,-0.48242 -0.12562,-0.91406 -0.37685,-1.29492 -0.25123,-0.38086 -0.83409,-0.74056 -1.74855,-1.0791 -1.49734,-0.56706 -2.56506,-1.32031 -3.20318,-2.25977 -0.64315,-0.93944 -0.96473,-2.13704 -0.96473,-3.59277 0,-0.95637 0.1633,-1.85774 0.4899,-2.70411 0.33162,-0.8548 0.82655,-1.52342 1.48477,-2.00586 0.66324,-0.49087 1.57018,-0.73631 2.72082,-0.73632 1.4119,1e-5 2.48717,0.44435 3.22578,1.333 0.74363,0.88023 1.1858,2.28517 1.3265,4.21484 l -3.21826,0.31739 c -0.0854,-0.83788 -0.26631,-1.44725 -0.54265,-1.82813 -0.27134,-0.38084 -0.64818,-0.57127 -1.13053,-0.57129 -0.39695,2e-5 -0.69591,0.1439 -0.89689,0.43164 -0.20099,0.27932 -0.30148,0.62209 -0.30148,1.02833 0,0.29624 0.0829,0.56283 0.24872,0.7998 0.16078,0.24545 0.54265,0.47397 1.14561,0.68554 1.49229,0.54169 2.56002,1.09182 3.20317,1.65039 0.64817,0.55015 1.11796,1.23569 1.4094,2.05665 0.29644,0.82097 0.44466,1.73926 0.44468,2.75488 -2e-5,1.19337 -0.19597,2.29362 -0.58788,3.30078 -0.39192,1.00716 -0.9396,1.77312 -1.64304,2.29785 -0.70345,0.51627 -1.59029,0.77442 -2.66053,0.77442 -1.87919,0 -3.18056,-0.60937 -3.90411,-1.82813 -0.72354,-1.21874 -1.13304,-2.76757 -1.22851,-4.64649 m -6.7229,-0.58398 0,-3.87207 5.27582,0 0,7.93457 c -1.00995,1.15951 -1.90433,1.95086 -2.68313,2.37402 -0.77379,0.41472 -1.6933,0.62208 -2.7585,0.62208 -1.31143,0 -2.38167,-0.37663 -3.21072,-1.12989 -0.82404,-0.75325 -1.46467,-1.87467 -1.9219,-3.36425 -0.45222,-1.48958 -0.67832,-3.19921 -0.67832,-5.12891 0,-2.03123 0.24871,-3.79589 0.74614,-5.29395 0.49744,-1.50649 1.226,-2.64907 2.1857,-3.42773 0.74866,-0.60089 1.7561,-0.90135 3.0223,-0.90136 1.22097,1e-5 2.13293,0.18622 2.73589,0.55858 0.60797,0.37242 1.11043,0.95217 1.50737,1.73927 0.40196,0.77866 0.70343,1.7689 0.90444,2.9707 l -3.29363,0.99023 c -0.13567,-0.70246 -0.3668,-1.23989 -0.69339,-1.6123 -0.32158,-0.37238 -0.7336,-0.55858 -1.23605,-0.55859 -0.74867,10e-6 -1.3466,0.44011 -1.79378,1.3203 -0.44217,0.87176 -0.66325,2.25556 -0.66325,4.15137 0,2.01433 0.22359,3.45313 0.67078,4.31641 0.45221,0.86328 1.08029,1.29492 1.88423,1.29492 0.38186,0 0.74614,-0.0931 1.09285,-0.27929 0.34669,-0.18619 0.74363,-0.50358 1.19083,-0.95215 l 0,-1.75196 -2.28368,0 m -378.40952,1.20612 3.24839,-0.34277 c 0.0704,0.88868 0.21355,1.56575 0.42961,2.03125 0.35171,0.75325 0.85418,1.12989 1.50738,1.12988 0.48738,1e-5 0.8617,-0.19042 1.12299,-0.57129 0.2663,-0.38932 0.39945,-0.83788 0.39946,-1.34569 -10e-6,-0.48243 -0.12562,-0.91407 -0.37685,-1.29494 -0.25123,-0.38084 -0.83409,-0.74054 -1.74855,-1.0791 -1.49734,-0.56704 -2.56506,-1.3203 -3.20318,-2.25976 -0.64315,-0.93945 -0.96473,-2.13703 -0.96473,-3.59278 0,-0.95636 0.1633,-1.85773 0.4899,-2.7041 0.33163,-0.85479 0.82654,-1.52342 1.48477,-2.00586 0.66324,-0.49086 1.57018,-0.7363 2.72082,-0.73632 1.4119,2e-5 2.48716,0.44436 3.22578,1.33301 0.74364,0.88022 1.1858,2.28517 1.3265,4.21484 l -3.21825,0.31738 c -0.0854,-0.83787 -0.26632,-1.44725 -0.54266,-1.82812 -0.27133,-0.38085 -0.64818,-0.57127 -1.13053,-0.57129 -0.39695,2e-5 -0.69591,0.1439 -0.89689,0.43164 -0.20099,0.27931 -0.30148,0.62208 -0.30148,1.02832 0,0.29623 0.0829,0.56284 0.24872,0.7998 0.16078,0.24546 0.54265,0.47398 1.14561,0.68555 1.49229,0.54167 2.56002,1.09181 3.20317,1.65039 0.64816,0.55014 1.11796,1.23569 1.40941,2.05664 0.29643,0.82097 0.44466,1.73927 0.44467,2.75488 -1e-5,1.19336 -0.19597,2.29363 -0.58788,3.30079 -0.39192,1.00716 -0.9396,1.7731 -1.64304,2.29785 -0.70345,0.51627 -1.59029,0.77442 -2.66052,0.77442 -1.8792,0 -3.18057,-0.60938 -3.90411,-1.82813 -0.72355,-1.21875 -1.13305,-2.76757 -1.22851,-4.64649 m -6.72291,-0.58398 0,-3.87208 5.27582,0 0,7.93458 c -1.00995,1.1595 -1.90433,1.95084 -2.68313,2.37402 -0.77379,0.41472 -1.6933,0.62208 -2.7585,0.62208 -1.31143,0 -2.38167,-0.37664 -3.21072,-1.12989 -0.82403,-0.75326 -1.46466,-1.87467 -1.9219,-3.36425 -0.45222,-1.48959 -0.67832,-3.19923 -0.67832,-5.12891 0,-2.03125 0.24871,-3.79589 0.74615,-5.29395 0.49743,-1.50649 1.22599,-2.64907 2.18569,-3.42773 0.74866,-0.60089 1.7561,-0.90135 3.0223,-0.90137 1.22097,2e-5 2.13293,0.18621 2.73589,0.55859 0.60797,0.37241 1.11043,0.95217 1.50738,1.73926 0.40196,0.77866 0.70343,1.76889 0.90443,2.9707 l -3.29363,0.99024 c -0.13567,-0.70246 -0.3668,-1.2399 -0.69339,-1.61231 -0.32158,-0.37238 -0.73359,-0.55858 -1.23605,-0.5586 -0.74867,2e-5 -1.3466,0.44013 -1.79378,1.32032 -0.44217,0.87176 -0.66325,2.25554 -0.66324,4.15137 -1e-5,2.01433 0.22358,3.45313 0.67078,4.3164 0.4522,0.86329 1.08028,1.29493 1.88422,1.29492 0.38186,1e-5 0.74615,-0.0931 1.09285,-0.27929 0.34669,-0.1862 0.74363,-0.50358 1.19083,-0.95215 l 0,-1.75195 -2.28368,0 m 353.91817,-27.83196 13.27557,-13.27556 c 0.5441,-0.5441 1.42017,-0.5441 1.96428,0 l 1.60714,1.60714 c 0.54411,0.54411 0.54411,1.42018 0,1.96429 l -13.27556,13.27555 c -0.54411,0.54411 -1.42018,0.54411 -1.96428,0 l -1.60715,-1.60713 c -0.5441,-0.54411 -0.54411,-1.42017 0,-1.96429 z m -309.81816,-1.4e-4 -13.27556,-13.27556 c -0.54412,-0.54412 -1.42019,-0.54411 -1.96429,0 l -1.60714,1.60714 c -0.54412,0.54411 -0.54412,1.42017 0,1.96429 l 13.27556,13.27556 c 0.5441,0.5441 1.42017,0.5441 1.96428,0 l 1.60715,-1.60714 c 0.5441,-0.54411 0.5441,-1.42019 0,-1.96429 z"
         style="fill:#ffffff;fill-opacity:1;stroke:none;display:inline"
         id="rect4922" />
    </g>
    <g
       id="FrontPlate"
       transform="translate(-107.2808,-90.157915)">
      <g
         id="Glideslope"
         transform="translate(-8.4889975,33.579689)">
        <path
           id="path4245"
           style="fill:#000000;fill-opacity:0.54901961;fill-rule:evenodd;stroke:none;filter:url(#filter4251)"
           d="m 674.75452,345.41658 -41.79004,6.06776 0,23.16782 41.79004,5.51614 0,-34.75172 0,0 z m -513.00828,-2 43.05113,6.06776 0,23.16782 -43.05113,5.51614 0,-34.75172 0,0 z"
           inkscape:connector-curvature="0" />
        <path
           id="path4175"
           style="fill:#d5cc24;fill-opacity:1;fill-rule:evenodd;stroke:none"
           d="m 674.30895,340.92816 -41.79004,6.06776 0,23.16782 41.79004,5.51614 0,-34.75172 0,0 z m -513.79004,-2 41.79004,6.06776 0,23.16782 -41.79004,5.51614 0,-34.75172 0,0 z"
           inkscape:connector-curvature="0" />
      </g>
      <path
         style="fill:#000000;fill-opacity:0.5098038;fill-rule:evenodd;stroke:none;display:inline;filter:url(#filter6411)"
         id="path5912"
         d="m 473.066,599.47144 c -8.13191,0 -111.2707,0 -119.40262,0 -8.13191,0 -17.46388,-1.68139 -26.19583,-6.75437 l -86.50718,-49.12275 c -8.2589,-16.54431 -13.99484,-32.45211 -34.72472,-41.14029 -16.75539,-13.15765 -37.65514,-36.1292 -37.77075,-57.10518 l -0.6092,-110.52616 c -0.36782,-66.73394 59.84055,-173.15764 190.68133,-173.15764 130.84078,0 -21.18546,0 109.65532,0 130.84078,0 191.04916,106.4237 190.68133,173.15764 l -0.6092,110.52616 c -0.11561,20.97598 -21.01536,43.94753 -37.77075,57.10518 -20.72987,8.68818 -26.46581,24.59598 -34.72472,41.14029 l -86.50718,49.12275 c -8.73194,5.07298 -18.06392,6.75437 -26.19583,6.75437 z M 119.57149,96.30736 l 584.8546,0 c 0.75353,0 1.36015,0.61144 1.36015,1.37094 l 0,565.17572 c 0,0.7595 -0.60662,1.37094 -1.36015,1.37094 l -584.8546,0 c -0.75353,0 -1.36016,-0.61144 -1.36016,-1.37094 l 0,-565.17572 c 0,-0.7595 0.60663,-1.37094 1.36016,-1.37094 l 0,0 z"
         inkscape:connector-curvature="0" />
      <path
         inkscape:connector-curvature="0"
         d="m 469.64964,598.62026 c -8.30411,0 -113.6269,0 -121.93101,0 -8.30411,0 -17.83369,-1.70349 -26.75054,-6.84316 l -88.339,-49.76846 c -8.43379,-16.76179 -14.29119,-32.8787 -35.46003,-41.68108 -17.11019,-13.33061 -38.4525,-36.60412 -38.57056,-57.85583 l -0.6221,-111.97902 c -0.37561,-67.61116 61.1077,-175.4338 194.71908,-175.4338 133.61138,0 -21.63407,0 111.97731,0 133.61138,0 195.09469,107.82264 194.71908,175.4338 l -0.6221,111.97902 c -0.11806,21.25171 -21.46037,44.52522 -38.57056,57.85583 -21.16884,8.80238 -27.02624,24.91929 -35.46003,41.68108 l -88.339,49.76846 c -8.91685,5.13967 -18.44643,6.84316 -26.75054,6.84316 l 0,0 z M 108.66976,88.84209 l 597.2391,0 c 0.76949,0 1.38896,0.61947 1.38896,1.38896 l 0,572.60495 c 0,0.76949 -0.61947,1.38896 -1.38896,1.38896 l -597.2391,0 c -0.76949,0 -1.38896,-0.61947 -1.38896,-1.38896 l 0,-572.60495 c 0,-0.76949 0.61947,-1.38896 1.38896,-1.38896 l 0,0 z"
         id="path5790"
         style="fill:url(#radialGradient4016);fill-opacity:1;fill-rule:evenodd;stroke:none;display:inline;enable-background:new" />
      <path
         inkscape:connector-curvature="0"
         d="m 408.40829,634.08028 c -61.6679,0 -129.99281,-4.10928 -193.50922,-26.12843 -25.80806,-8.94684 -53.81809,-21.82375 -64.69899,-70.29795 -27.99795,-124.73031 -23.43036,-275.8248 10.88685,-358.33287 12.75257,-30.66071 34.03738,-41.01391 70.92004,-50.39056 65.7334,-16.71135 112.21777,-21.7737 176.40132,-21.7737 64.18355,0 110.66792,5.06235 176.40132,21.7737 36.88266,9.37665 58.16747,19.72985 70.92004,50.39056 34.31721,82.50807 38.8848,233.60256 10.88684,358.33287 -10.88089,48.4742 -38.89092,61.35111 -64.69898,70.29795 -63.51641,22.01915 -131.84132,26.12843 -193.50922,26.12843 l 0,0 z"
         id="path5809"
         style="fill:none;stroke:#b8b8b8;stroke-width:7;stroke-linecap:butt;stroke-linejoin:miter;stroke-miterlimit:4;stroke-opacity:0.56281403;stroke-dasharray:none;display:inline;enable-background:new" />
    </g>
    <g
       id="AircraftSymbol"
       transform="translate(-107.66004,-98.738254)">
      <path
         inkscape:connector-curvature="0"
         d="m 429.50672,380.71114 c -0.52465,0 -0.96875,0.4441 -0.96875,0.96875 l 0,20.96875 -33.03125,0 c -0.52465,0 -0.96875,0.4441 -0.96875,0.96875 l 0,3 c 0,0.52465 0.4441,0.96875 0.96875,0.96875 l 33.03125,0 0,40.40625 -8.40625,0 c -0.52465,0 -0.96875,0.41285 -0.96875,0.9375 l 0,3.03125 c 0,0.52465 0.4441,0.9375 0.96875,0.9375 l 8.40625,0 0,7.21875 c 0,0.52465 0.4441,0.96875 0.96875,0.96875 l 3,0 c 0.52465,0 0.96875,-0.4441 0.96875,-0.96875 l 0,-7.21875 8.40625,0 c 0.52465,0 0.96875,-0.41285 0.96875,-0.9375 l 0,-3.03125 c 0,-0.52465 -0.4441,-0.9375 -0.96875,-0.9375 l -8.40625,0 0,-40.40625 33.03125,0 c 0.52465,0 0.96875,-0.4441 0.96875,-0.96875 l 0,-3 c 0,-0.52465 -0.4441,-0.96875 -0.96875,-0.96875 l -33.03125,0 0,-20.96875 c 0,-0.52465 -0.4441,-0.96875 -0.96875,-0.96875 l -3,0 z"
         id="path5341"
         style="fill:#000000;fill-opacity:0.43137255;stroke:none;filter:url(#filter5343)" />
      <path
         inkscape:connector-curvature="0"
         d="m 415.82039,370.13534 c -0.52465,0 -0.96875,0.4441 -0.96875,0.96875 l 0,20.96875 -33.03125,0 c -0.52465,0 -0.96875,0.4441 -0.96875,0.96875 l 0,3 c 0,0.52465 0.4441,0.96875 0.96875,0.96875 l 33.03125,0 0,40.40625 -8.40625,0 c -0.52465,0 -0.96875,0.41285 -0.96875,0.9375 l 0,3.03125 c 0,0.52465 0.4441,0.9375 0.96875,0.9375 l 8.40625,0 0,7.21875 c 0,0.52465 0.4441,0.96875 0.96875,0.96875 l 3,0 c 0.52465,0 0.96875,-0.4441 0.96875,-0.96875 l 0,-7.21875 8.40625,0 c 0.52465,0 0.96875,-0.41285 0.96875,-0.9375 l 0,-3.03125 c 0,-0.52465 -0.4441,-0.9375 -0.96875,-0.9375 l -8.40625,0 0,-40.40625 33.03125,0 c 0.52465,0 0.96875,-0.4441 0.96875,-0.96875 l 0,-3 c 0,-0.52465 -0.4441,-0.96875 -0.96875,-0.96875 l -33.03125,0 0,-20.96875 c 0,-0.52465 -0.4441,-0.96875 -0.96875,-0.96875 l -3,0 z"
         id="rect4776"
         style="fill:#f79239;fill-opacity:1;stroke:none" />
    </g>
  </g>
  <g
     inkscape:groupmode="layer"
     id="Knobs"
     inkscape:label="Knobs"
     style="display:inline">
    <g
       style="enable-background:new"
       id="CourseSelectorWithShadow"
       transform="translate(-107.2808,-90.157915)">
      <path
         inkscape:connector-curvature="0"
         d="m 205.5846,510.75973 c -22.39078,0 -35.597,12.87613 -48.46875,35.71875 -0.0233,0.0413 -0.0392,0.0836 -0.0625,0.125 -5.22424,7.66345 -8.3125,16.93189 -8.3125,26.90625 0,26.40631 21.40619,47.8125 47.8125,47.8125 18.56444,0 34.64127,-10.60299 42.5625,-26.0625 7.64648,-11.45603 12.71875,-25.94961 12.71875,-38.25 0,-25.54737 -20.70265,-46.25 -46.25,-46.25 l 0,0 z"
         id="path4076"
         style="fill:#000000;fill-opacity:0.58823529;stroke:none;filter:url(#filter4085)" />
      <g
         id="CourseSelector">
        <path
           style="fill:url(#radialGradient5711);fill-opacity:1;stroke:none"
           id="path4060"
           d="m 139.53318,538.60694 c -13.74993,25.85603 73.22748,59.28356 82.22405,47.40032 8.99656,-11.88324 15.15084,-28.13217 15.15084,-41.70216 0,-25.54737 -20.71024,-46.25761 -46.25759,-46.25761 -23.92671,0 -37.36737,14.70345 -51.1173,40.55945 l 0,0 z"
           inkscape:connector-curvature="0" />
        <path
           inkscape:connector-curvature="0"
           d="m 133.81704,560.79091 c -0.006,26.41085 21.40201,47.82448 47.81286,47.82448 26.41085,0 47.81926,-21.41363 47.81285,-47.82448 0.006,-26.41085 -21.402,-47.82449 -47.81285,-47.82449 -26.41085,0 -47.81927,21.41364 -47.81286,47.82449 l 0,0 z"
           id="path4062"
           style="fill:#565656;fill-opacity:1;stroke:none" />
        <path
           inkscape:connector-curvature="0"
           d="m 139.57153,560.79091 c -0.006,23.2322 18.82619,42.06861 42.05838,42.06861 23.23219,0 42.06402,-18.83641 42.05838,-42.06861 0.006,-23.23219 -18.82619,-42.0686 -42.05838,-42.0686 -23.23219,0 -42.06402,18.83641 -42.05838,42.0686 l 0,0 z"
           id="path4064"
           style="fill:#131313;fill-opacity:1;stroke:none" />
        <path
           inkscape:connector-curvature="0"
           d="m 140.97132,560.79089 c -0.005,22.459 18.19963,40.66852 40.65864,40.66852 22.459,0 40.66409,-18.20952 40.65863,-40.66852 0.005,-22.45901 -18.19963,-40.66853 -40.65863,-40.66853 -22.45901,0 -40.6641,18.20952 -40.65864,40.66853 l 0,0 z"
           id="path4066"
           style="fill:#c9c9c9;fill-opacity:1;stroke:none" />
        <path
           inkscape:connector-curvature="0"
           d="m 147.78985,560.7909 c -0.005,18.69259 15.14752,33.84834 33.84011,33.84834 18.69259,0 33.84465,-15.15575 33.84011,-33.84834 0.005,-18.69259 -15.14752,-33.84834 -33.84011,-33.84834 -18.69259,0 -33.84465,15.15575 -33.84011,33.84834 l 0,0 z"
           id="path4068"
           style="fill:#565656;fill-opacity:1;stroke:#000000;stroke-width:1;stroke-linecap:butt;stroke-linejoin:miter;stroke-miterlimit:4;stroke-opacity:1;stroke-dasharray:none;stroke-dashoffset:0" />
        <path
           inkscape:connector-curvature="0"
           d="m 192.94026,536.61205 c -0.63438,-0.31164 -1.31285,0.0416 -2.04291,0.84793 -5.28393,5.83569 -10.43422,11.64161 -17.72268,16.31421 -3.57819,2.29396 -2.01709,3.16252 0.775,4.53418 l 3.78937,1.86159 -8.7011,17.71155 c -0.37681,0.76703 -0.0496,1.67705 0.71745,2.05386 l 3.06374,1.50512 c 0.76703,0.37681 1.6873,0.0797 2.06412,-0.68738 l 8.70109,-17.71155 3.78937,1.86159 c 2.79208,1.37165 4.43364,2.07646 4.06248,-2.15769 -0.75601,-8.62458 0.69179,-16.24941 2.08146,-23.99821 0.19201,-1.07064 0.057,-1.82355 -0.57739,-2.1352 l 0,0 z"
           id="path4074"
           style="fill:#fff200;fill-opacity:1;stroke:none" />
      </g>
    </g>
    <g
       style="enable-background:new"
       id="HeadingSelectorWithShadow"
       transform="translate(-107.2808,-90.157915)">
      <path
         inkscape:connector-curvature="0"
         d="m 641.43732,510.75973 c 22.39078,0 35.597,12.87613 48.46875,35.71875 0.0233,0.0413 0.0392,0.0836 0.0625,0.125 5.22424,7.66345 8.3125,16.93189 8.3125,26.90625 0,26.40631 -21.40619,47.8125 -47.8125,47.8125 -18.56444,0 -34.64127,-10.60299 -42.5625,-26.0625 -7.64648,-11.45603 -12.71875,-25.94961 -12.71875,-38.25 0,-25.54737 20.70265,-46.25 46.25,-46.25 l 0,0 z"
         id="path4083"
         style="fill:#000000;fill-opacity:0.58823529;stroke:none;filter:url(#filter4089)" />
      <g
         id="HeadingSelector">
        <path
           style="fill:url(#radialGradient5709);fill-opacity:1;stroke:none"
           id="path4037"
           d="m 695.92473,538.60693 c 13.74993,25.85603 -73.22748,59.28356 -82.22405,47.40032 -8.99656,-11.88324 -15.15084,-28.13217 -15.15084,-41.70216 0,-25.54737 20.71024,-46.25761 46.25759,-46.25761 23.92671,0 37.36737,14.70345 51.1173,40.55945 z"
           inkscape:connector-curvature="0" />
        <path
           inkscape:connector-curvature="0"
           d="m 701.64082,560.7909 c 0.006,26.41085 -21.40201,47.82448 -47.81286,47.82448 -26.41085,0 -47.81926,-21.41363 -47.81285,-47.82448 -0.006,-26.41085 21.402,-47.82449 47.81285,-47.82449 26.41085,0 47.81927,21.41364 47.81286,47.82449 l 0,0 z"
           id="path4045"
           style="fill:#565656;fill-opacity:1;stroke:none" />
        <path
           inkscape:connector-curvature="0"
           d="m 695.88636,560.7909 c 0.006,23.2322 -18.82619,42.06861 -42.05838,42.06861 -23.23219,0 -42.06402,-18.83641 -42.05838,-42.06861 -0.006,-23.23219 18.82619,-42.0686 42.05838,-42.0686 23.23219,0 42.06402,18.83641 42.05838,42.0686 l 0,0 z"
           id="path4043"
           style="fill:#131313;fill-opacity:1;stroke:none" />
        <path
           inkscape:connector-curvature="0"
           d="m 694.4866,560.79089 c 0.005,22.459 -18.19963,40.66852 -40.65864,40.66852 -22.459,0 -40.66409,-18.20952 -40.65863,-40.66852 -0.005,-22.45901 18.19963,-40.66853 40.65863,-40.66853 22.45901,0 40.6641,18.20952 40.65864,40.66853 l 0,0 z"
           id="path4920"
           style="fill:#c9c9c9;fill-opacity:1;stroke:none" />
        <path
           inkscape:connector-curvature="0"
           d="m 687.66811,560.7909 c 0.005,18.69259 -15.14752,33.84834 -33.84011,33.84834 -18.69259,0 -33.84465,-15.15575 -33.84011,-33.84834 -0.005,-18.69259 15.14752,-33.84834 33.84011,-33.84834 18.69259,0 33.84465,15.15575 33.84011,33.84834 l 0,0 z"
           id="path4918"
           style="fill:#565656;fill-opacity:1;stroke:#000000;stroke-width:1;stroke-linecap:butt;stroke-linejoin:miter;stroke-miterlimit:4;stroke-opacity:1;stroke-dasharray:none;stroke-dashoffset:0" />
        <path
           inkscape:connector-curvature="0"
           d="m 636.45676,577.74191 c 1.96264,-12.49368 6.7637,-26.41252 11.99661,-38.10443 l 13.22446,3.48928 -0.88746,12.90178 10.40885,11.17779 -15.35111,4.27772 -6.06871,10.46026 -13.32264,-4.2024 0,0 z"
           id="path4058"
           style="fill:none;stroke:#f79239;stroke-width:5;stroke-linecap:butt;stroke-linejoin:round;stroke-miterlimit:4;stroke-opacity:1;stroke-dasharray:none;display:inline" />
      </g>
    </g>
  </g>
</svg>
