<?xml version="1.0" encoding="UTF-8" standalone="no"?>
<!-- Created with Inkscape (http://www.inkscape.org/) -->

<svg
   xmlns:dc="http://purl.org/dc/elements/1.1/"
   xmlns:cc="http://creativecommons.org/ns#"
   xmlns:rdf="http://www.w3.org/1999/02/22-rdf-syntax-ns#"
   xmlns:svg="http://www.w3.org/2000/svg"
   xmlns="http://www.w3.org/2000/svg"
   xmlns:sodipodi="http://sodipodi.sourceforge.net/DTD/sodipodi-0.dtd"
   xmlns:inkscape="http://www.inkscape.org/namespaces/inkscape"
   version="1.1"
   width="100%"
   height="100%"
   id="RPM"
   inkscape:version="0.48.4 r9939"
   sodipodi:docname="RPM.svg"
   viewBox="0 0 512 512"
   preserveAspectRatio="xMinYMin meet">
  <sodipodi:namedview
     bordercolor="#666666"
     borderopacity="1"
     objecttolerance="10"
     gridtolerance="10"
     guidetolerance="10"
     inkscape:pageshadow="2"
     inkscape:window-width="1920"
     inkscape:window-height="1177"
     id="namedview6302"
     showgrid="false"
     inkscape:zoom="0.97851563"
     inkscape:cx="-51.028459"
     inkscape:cy="259.07121"
     inkscape:window-x="0"
     inkscape:window-y="0"
     inkscape:window-maximized="1"
     inkscape:current-layer="Right" />
  <title
     id="title2987">Dual Engine RPM Indicator</title>
  <defs
     id="defs5201" />
  <metadata
     id="metadata5204">
    <rdf:RDF>
      <cc:Work
         rdf:about="">
        <dc:format>image/svg+xml</dc:format>
        <dc:type
           rdf:resource="http://purl.org/dc/dcmitype/StillImage" />
        <dc:title>FlightGear SenecaII RPM</dc:title>
        <dc:date>04/04/2014</dc:date>
        <dc:creator>
          <cc:Agent>
            <dc:title>Torsten Dreyer</dc:title>
          </cc:Agent>
        </dc:creator>
        <dc:rights>
          <cc:Agent>
            <dc:title>(c) Torsten Dreyer</dc:title>
          </cc:Agent>
        </dc:rights>
        <dc:publisher>
          <cc:Agent>
            <dc:title>FlightGear.org</dc:title>
          </cc:Agent>
        </dc:publisher>
        <cc:license
           rdf:resource="http://creativecommons.org/licenses/by/3.0/" />
      </cc:Work>
      <cc:License
         rdf:about="http://creativecommons.org/licenses/by/3.0/">
        <cc:permits
           rdf:resource="http://creativecommons.org/ns#Reproduction" />
        <cc:permits
           rdf:resource="http://creativecommons.org/ns#Distribution" />
        <cc:requires
           rdf:resource="http://creativecommons.org/ns#Notice" />
        <cc:requires
           rdf:resource="http://creativecommons.org/ns#Attribution" />
        <cc:permits
           rdf:resource="http://creativecommons.org/ns#DerivativeWorks" />
      </cc:License>
    </rdf:RDF>
  </metadata>
  <g
     inkscape:groupmode="layer"
     id="layer4"
     inkscape:label="Face"
     style="display:inline">
    <path
       inkscape:connector-curvature="0"
       style="color:#000000;fill:#0a0a0a;fill-opacity:1;fill-rule:nonzero;stroke:none;stroke-width:2;marker:none"
       id="background"
       d="m 512.00001,256 c 0,141.38489 -114.6151,255.99999 -256,255.99999 C 114.6151,511.99999 -5.8907202e-7,397.38489 -5.8907202e-7,256 -5.8907202e-7,114.6151 114.6151,7.1620104e-7 256.00001,7.1620104e-7 397.38491,7.1620104e-7 512.00001,114.6151 512.00001,256 z" />
    <path
       d="m 291.06247,35.06251 -4.12499,29.6875 c 15.78133,2.54004 30.84661,7.1133 45.12499,13.1875 l 12.0625,-27.25 c -16.7786,-7.18942 -34.47658,-12.68332 -53.0625,-15.625 z"
       id="path3032"
       style="color:#000000;fill:#f3f50c;fill-opacity:1;fill-rule:nonzero;stroke:none;stroke-width:2;marker:none"
       inkscape:connector-curvature="0" />
    <path
       d="m 349.62497,53.06251 -12.125,27.3125 c 32.0714,14.82614 59.524,37.9403 79.18748,66.9375 l -1.5625,-2.3125 24.75,-16.6875 c -22.67498,-32.5681 -53.88892,-58.50404 -90.24998,-75.25 z m -93.62499,-21.0625 c -123.64802,0 -224.000019,100.352 -224.000019,224 0,28.26146 5.43504,55.21766 15,80.125 l 27.8125,-11.25 c -8.15796,-21.42802 -12.8125,-44.59474 -12.8125,-68.875 0,-107.08802 86.911999,-194 194.000019,-194 7.78094,0 15.45746,0.54506 23,1.4375 l 4.1875,-29.75 c -8.91056,-1.08262 -17.98492,-1.6875 -27.1875,-1.6875 z"
       id="path3047"
       style="color:#000000;fill:#45c60e;fill-opacity:1;fill-rule:nonzero;stroke:none;stroke-width:2;marker:none"
       inkscape:connector-curvature="0" />
    <path
       d="m 434.86796,121.09913 4.70228,6.47212 -32.36061,23.51142 -4.70228,-6.47212 z"
       id="rect1556"
       style="color:#000000;fill:#ae0303;fill-opacity:1;fill-rule:nonzero;stroke:none;stroke-width:2;marker:none"
       inkscape:connector-curvature="0" />
    <path
       d="m 289.30392,211.57548 0,1.92934 c -0.52996,-0.35908 -1.02994,-0.62677 -1.49998,-0.80308 -0.47003,-0.17626 -0.92394,-0.2644 -1.36171,-0.26442 -0.76037,2e-5 -1.34791,0.20894 -1.76264,0.62679 -0.41013,0.41788 -0.6152,1.01203 -0.6152,1.78245 0,0.6464 0.13594,1.13608 0.40783,1.46905 0.27649,0.32647 0.79721,0.5909 1.56218,0.7933 l 0.8433,0.24483 c 1.04145,0.28076 1.80871,0.77698 2.30179,1.48864 0.49768,0.70515 0.74652,1.65188 0.74653,2.84017 -10e-6,1.41682 -0.33641,2.49085 -1.0092,3.22211 -0.66819,0.73126 -1.64974,1.09689 -2.94463,1.09689 -0.48848,0 -1.0092,-0.0783 -1.56218,-0.23505 -0.54838,-0.15669 -1.11749,-0.38848 -1.70733,-0.69534 l 0,-2.0371 c 0.5668,0.45053 1.12209,0.79004 1.66586,1.01856 0.54376,0.22851 1.07831,0.34277 1.60365,0.34277 0.79721,0 1.4124,-0.22199 1.84558,-0.66597 0.43316,-0.44397 0.64975,-1.0773 0.64975,-1.89997 0,-0.7182 -0.15668,-1.2797 -0.47003,-1.68452 -0.30875,-0.40479 -0.81796,-0.7084 -1.52762,-0.9108 l -0.85021,-0.23505 c -1.04145,-0.29381 -1.79489,-0.7541 -2.26032,-1.38091 -0.46543,-0.62678 -0.69814,-1.49842 -0.69814,-2.61491 0,-1.29275 0.32027,-2.31129 0.9608,-3.05563 0.64515,-0.7443 1.53223,-1.11645 2.66124,-1.11648 0.48386,3e-5 0.97693,0.062 1.47923,0.18608 0.50229,0.12407 1.01611,0.31015 1.54145,0.55825 m -16.27154,-0.47989 8.73022,0 0,1.66492 -3.66351,0 0,12.95702 -1.4032,0 0,-12.95702 -3.66351,0 0,-1.66492 m -7.52749,0 6.52521,0 0,1.66492 -5.12892,0 0,4.3288 4.91464,0 0,1.66493 -4.91464,0 0,5.29838 5.25334,0 0,1.66491 -6.64963,0 0,-14.62194 m -4.9492,7.76638 c 0.29952,0.14364 0.58984,0.45052 0.87095,0.92061 0.2857,0.47009 0.5714,1.11648 0.85712,1.93914 l 1.41702,3.99581 -1.49997,0 -1.32024,-3.75097 c -0.34102,-0.97936 -0.67281,-1.62901 -0.99537,-1.94894 -0.31798,-0.31992 -0.75345,-0.47988 -1.30643,-0.47989 l -1.5207,0 0,6.1798 -1.39629,0 0,-14.62194 3.15201,0 c 1.17969,1e-5 2.05986,0.34932 2.6405,1.04792 0.58062,0.69863 0.87094,1.75308 0.87094,3.16336 0,0.92061 -0.15207,1.68452 -0.4562,2.29172 -0.29955,0.60721 -0.73732,1.02834 -1.31334,1.26338 m -3.49762,-6.14063 0,5.19065 1.75572,0 c 0.67279,0 1.17969,-0.21872 1.5207,-0.65619 0.34562,-0.44396 0.51842,-1.09361 0.51843,-1.94893 -10e-6,-0.8553 -0.17281,-1.49842 -0.51843,-1.92936 -0.34101,-0.43743 -0.84791,-0.65616 -1.5207,-0.65617 l -1.75572,0 m -10.89377,0 0,11.37045 1.6866,0 c 1.42392,0 2.46537,-0.45703 3.12436,-1.37111 0.66356,-0.91408 0.99536,-2.35701 0.99536,-4.32881 0,-1.95873 -0.3318,-3.39187 -0.99536,-4.29942 -0.65899,-0.91406 -1.70044,-1.3711 -3.12436,-1.37111 l -1.6866,0 m -1.39629,-1.62575 2.86861,0 c 1.99995,1e-5 3.46765,0.5909 4.40313,1.77265 0.93545,1.17525 1.40318,3.01646 1.40319,5.52363 -1e-5,2.52025 -0.47004,4.37124 -1.4101,5.55301 -0.94008,1.18177 -2.40549,1.77265 -4.39622,1.77265 l -2.86861,0 0,-14.62194 m -10.58963,0 1.88015,0 4.57593,12.23229 0,-12.23229 1.35481,0 0,14.62194 -1.88014,0 -4.57594,-12.23229 0,12.23229 -1.35481,0 0,-14.62194 m -10.52742,0 1.40319,0 0,8.88285 c 0,1.56699 0.20046,2.69653 0.60137,3.38862 0.40092,0.68556 1.05067,1.02833 1.94927,1.02833 0.89398,0 1.54143,-0.34277 1.94235,-1.02833 0.40091,-0.69209 0.60137,-1.82163 0.60137,-3.38862 l 0,-8.88285 1.4032,0 0,9.1277 c -1e-5,1.9065 -0.3341,3.34617 -1.00228,4.31901 -0.66359,0.97283 -1.64513,1.45925 -2.94464,1.45925 -1.30412,0 -2.29028,-0.48642 -2.95846,-1.45925 -0.66358,-0.97284 -0.99537,-2.41251 -0.99537,-4.31901 l 0,-9.1277 m -10.48595,0 1.39629,0 0,5.99372 5.07361,0 0,-5.99372 1.39629,0 0,14.62194 -1.39629,0 0,-6.96329 -5.07361,0 0,6.96329 -1.39629,0 0,-14.62194 m 46.41989,-30.04139 3.2989,0 4.17569,16.60621 4.1976,-16.60621 3.29891,0 0,24.40262 -2.15908,0 0,-21.42789 -4.21953,16.73697 -2.22484,0 -4.21953,-16.73697 0,21.42789 -2.14812,0 0,-24.40262 m -11.33245,2.71323 0,9.16936 2.78378,0 c 1.03023,1e-5 1.82664,-0.39771 2.38925,-1.19316 0.5626,-0.79543 0.8439,-1.92865 0.84391,-3.39969 -10e-6,-1.46011 -0.28131,-2.58789 -0.84391,-3.38335 -0.56261,-0.79542 -1.35902,-1.19314 -2.38925,-1.19316 l -2.78378,0 m -2.21389,-2.71323 4.99767,0 c 1.83394,3e-5 3.21853,0.62113 4.15378,1.8633 0.94253,1.23132 1.4138,3.04013 1.41382,5.42644 -2e-5,2.40812 -0.47129,4.22784 -1.41382,5.45912 -0.93525,1.23131 -2.31984,1.84696 -4.15378,1.84696 l -2.78378,0 0,9.8068 -2.21389,0 0,-24.40262 m -7.84722,12.96134 c 0.47492,0.23974 0.93522,0.75187 1.38094,1.53641 0.45299,0.78456 0.90599,1.8633 1.35901,3.23625 l 2.24677,6.66862 -2.37829,0 -2.09331,-6.26001 c -0.5407,-1.63446 -1.06678,-2.71866 -1.57823,-3.2526 -0.50416,-0.53391 -1.19462,-0.80086 -2.0714,-0.80088 l -2.41116,0 0,10.31349 -2.21389,0 0,-24.40262 4.99768,0 c 1.87047,3e-5 3.26602,0.58299 4.18665,1.7489 0.92062,1.16593 1.38093,2.92571 1.38094,5.27933 -1e-5,1.53642 -0.24113,2.81129 -0.72335,3.82464 -0.47494,1.0134 -1.16905,1.71621 -2.08236,2.10847 m -5.54567,-10.24811 0,8.66268 2.78379,0 c 1.06675,10e-6 1.87047,-0.36502 2.41117,-1.09509 0.54797,-0.74095 0.82197,-1.82515 0.82198,-3.25259 -1e-5,-1.42743 -0.27401,-2.50072 -0.82198,-3.2199 -0.5407,-0.73006 -1.34442,-1.09508 -2.41117,-1.0951 l -2.78379,0 m -94.08151,205.5199 c -3e-5,1.71408 -0.2905,3.24262 -0.87143,4.58559 -0.56282,1.34299 -1.39794,2.48275 -2.50536,3.4193 -1.0893,0.91889 -2.45092,1.62572 -4.08482,2.12051 -1.6158,0.4771 -3.46758,0.71567 -5.55537,0.71567 -2.37828,0 -4.38438,-0.28274 -6.0183,-0.8482 -1.61579,-0.58315 -2.95015,-1.34298 -4.00313,-2.27953 -1.05299,-0.95423 -1.84271,-2.03214 -2.36919,-3.23378 -0.52649,-1.21927 -0.87144,-2.4739 -1.03483,-3.76388 l 5.06519,-0.4506 c 0.14522,0.98956 0.40847,1.89077 0.78973,2.70363 0.39939,0.81286 0.93496,1.51086 1.60669,2.094 0.67171,0.58313 1.49776,1.03374 2.47813,1.3518 0.98035,0.31809 2.14225,0.47713 3.48571,0.47713 2.46904,0 4.40252,-0.59197 5.80046,-1.77593 1.41605,-1.18393 2.12408,-2.94218 2.12411,-5.27474 -3e-5,-1.37832 -0.31773,-2.48274 -0.95313,-3.31328 -0.61728,-0.84819 -1.39793,-1.50201 -2.34196,-1.96147 -0.92592,-0.47709 -1.94258,-0.79517 -3.05001,-0.95422 -1.08929,-0.15902 -2.09688,-0.23854 -3.02276,-0.23856 l -2.77769,0 0,-4.13497 2.66876,0 c 0.92587,2e-5 1.88808,-0.0883 2.8866,-0.26506 0.9985,-0.19436 1.90624,-0.53011 2.72323,-1.00725 0.83509,-0.49475 1.5159,-1.15741 2.0424,-1.98795 0.54463,-0.83051 0.81694,-1.89076 0.81697,-3.18076 -3e-5,-1.99678 -0.60821,-3.56948 -1.82456,-4.71812 -1.19823,-1.16623 -2.98648,-1.74937 -5.36474,-1.7494 -2.16043,3e-5 -3.91236,0.53898 -5.2558,1.61688 -1.32531,1.07795 -2.09689,2.59764 -2.31474,4.55907 l -4.92901,-0.37108 c 0.19969,-1.64336 0.66264,-3.0747 1.38884,-4.29402 0.72619,-1.21926 1.64299,-2.22648 2.75044,-3.02171 1.12559,-0.81283 2.4055,-1.41364 3.83973,-1.80243 1.43422,-0.40639 2.95922,-0.60961 4.57501,-0.60963 2.14225,2e-5 3.98495,0.26509 5.52813,0.79517 1.54314,0.51249 2.80489,1.21934 3.78527,2.1205 0.98033,0.88358 1.69745,1.92616 2.15134,3.12774 0.47199,1.20165 0.70801,2.4828 0.70804,3.84342 -3e-5,1.09561 -0.15435,2.12051 -0.46295,3.07471 -0.30865,0.95425 -0.78976,1.81129 -1.44331,2.57112 -0.65358,0.75986 -1.48872,1.41367 -2.50536,1.96146 -0.99852,0.5478 -2.20582,0.96307 -3.62187,1.24579 l 0,0.10606 c 1.54313,0.15906 2.88659,0.50365 4.03035,1.03374 1.14374,0.51248 2.08778,1.15746 2.83216,1.93496 0.74431,0.77753 1.29804,1.66107 1.66116,2.65062 0.38121,0.98959 0.57184,2.03216 0.57187,3.12774 m 256.65538,9.23378 c -3e-5,1.87311 -0.24059,3.58718 -0.72172,5.14219 -0.48115,1.55504 -1.19534,2.89804 -2.14257,4.02897 -0.94727,1.11325 -2.12755,1.97912 -3.54089,2.5976 -1.39833,0.61847 -3.02217,0.92772 -4.87154,0.92772 -1.66896,0 -3.12743,-0.22972 -4.37538,-0.68917 -1.23292,-0.45944 -2.27789,-1.08676 -3.13492,-1.88194 -0.85704,-0.81285 -1.54116,-1.75823 -2.05237,-2.83616 -0.49617,-1.07792 -0.84951,-2.23535 -1.06,-3.47231 l 4.10472,-0.55664 c 0.16539,0.70684 0.39844,1.396 0.69915,2.06748 0.30072,0.65383 0.70668,1.24581 1.2179,1.77592 0.52623,0.51246 1.16524,0.92772 1.91704,1.24579 0.7668,0.30041 1.69149,0.45061 2.77407,0.4506 1.05248,1e-5 2.00724,-0.18553 2.86429,-0.55662 0.85701,-0.38875 1.58623,-0.95422 2.18768,-1.69639 0.61645,-0.74218 1.09007,-1.65222 1.42087,-2.73014 0.33077,-1.07793 0.49615,-2.31488 0.49618,-3.71088 -3e-5,-1.14858 -0.1579,-2.20001 -0.47363,-3.15424 -0.31576,-0.97188 -0.76683,-1.80241 -1.35321,-2.49159 -0.58641,-0.70681 -1.30812,-1.25461 -2.16513,-1.64337 -0.842,-0.38875 -1.80428,-0.58313 -2.88683,-0.58315 -0.67662,2e-5 -1.3006,0.0707 -1.87194,0.21205 -0.57136,0.14138 -1.10512,0.33576 -1.6013,0.58314 -0.48114,0.24741 -0.9247,0.53899 -1.33065,0.87471 -0.39093,0.3181 -0.7593,0.65384 -1.10511,1.00723 l -3.96942,0 1.06001,-20.09171 18.06531,0 0,4.05545 -14.36654,0 -0.60894,11.84828 c 0.7217,-0.65379 1.62383,-1.21042 2.70642,-1.66989 1.08255,-0.47709 2.36809,-0.71565 3.85663,-0.71567 1.57872,2e-5 2.99959,0.28275 4.2626,0.8482 1.26298,0.56549 2.33802,1.36951 3.22515,2.41206 0.88708,1.02492 1.5712,2.25305 2.05235,3.68437 0.48113,1.43135 0.72169,3.00406 0.72172,4.71811 m -25.80115,1.85539 c -10e-6,1.71409 -0.24058,3.24261 -0.7217,4.58558 -0.46613,1.34299 -1.15777,2.48276 -2.07493,3.41931 -0.90215,0.91887 -2.02981,1.62571 -3.38301,2.12048 -1.33819,0.47713 -2.87182,0.71568 -4.6009,0.71568 -1.96968,0 -3.63111,-0.28274 -4.98431,-0.84821 -1.33818,-0.58313 -2.44329,-1.34297 -3.31536,-2.27952 -0.87206,-0.95423 -1.52612,-2.03215 -1.96214,-3.23376 -0.43605,-1.21928 -0.72172,-2.4739 -0.85704,-3.76388 l 4.19494,-0.45062 c 0.12027,0.98959 0.33829,1.89079 0.65405,2.70364 0.33079,0.81287 0.77433,1.51086 1.33066,2.09399 0.5563,0.58314 1.24043,1.03375 2.05235,1.35182 0.81192,0.31809 1.77421,0.47711 2.88685,0.47711 2.04483,0 3.64613,-0.59196 4.80388,-1.77591 1.17276,-1.18395 1.75916,-2.94218 1.75917,-5.27475 -10e-6,-1.3783 -0.26314,-2.48272 -0.78937,-3.31327 -0.51123,-0.84819 -1.15776,-1.502 -1.9396,-1.96145 -0.76683,-0.4771 -1.60881,-0.79518 -2.52598,-0.95424 -0.90215,-0.15901 -1.73663,-0.23853 -2.50343,-0.23855 l -2.30046,0 0,-4.13496 2.21024,0 c 0.76681,1e-5 1.56369,-0.0883 2.39067,-0.26507 0.82695,-0.19436 1.57873,-0.5301 2.25535,-1.00724 0.69162,-0.49475 1.25545,-1.15742 1.6915,-1.98796 0.45105,-0.83051 0.67658,-1.89075 0.6766,-3.18075 -2e-5,-1.99678 -0.50371,-3.56947 -1.51107,-4.7181 -0.99237,-1.16625 -2.47338,-1.74939 -4.44304,-1.74941 -1.78924,2e-5 -3.24019,0.53898 -4.35281,1.61688 -1.0976,1.07794 -1.73662,2.59763 -1.91704,4.55906 l -4.08217,-0.37108 c 0.16538,-1.64336 0.54879,-3.07469 1.15022,-4.29401 0.60142,-1.21926 1.36072,-2.22649 2.2779,-3.02171 0.9322,-0.81281 1.99221,-1.41363 3.18003,-1.80242 1.18781,-0.4064 2.45081,-0.60961 3.78898,-0.60964 1.77419,3e-5 3.30031,0.26509 4.57835,0.79518 1.27801,0.5125 2.32299,1.21933 3.13493,2.12051 0.8119,0.88357 1.40581,1.92614 1.78173,3.12772 0.3909,1.20165 0.58636,2.48277 0.58638,3.8434 -2e-5,1.09562 -0.12783,2.12053 -0.3834,3.07472 -0.25564,0.95424 -0.65408,1.81129 -1.19534,2.57111 -0.5413,0.75987 -1.23294,1.41368 -2.07492,1.96146 -0.82698,0.54781 -1.82684,0.96307 -2.9996,1.24579 l 0,0.10606 c 1.27801,0.15904 2.39064,0.50363 3.33791,1.03373 0.94722,0.51247 1.72907,1.15746 2.34556,1.93496 0.61643,0.77752 1.07502,1.66106 1.37575,2.65061 0.31573,0.98958 0.47361,2.03216 0.47362,3.12773 m 72.66099,-122.97444 c -2e-5,3.58719 -0.27742,6.6089 -0.83223,9.06514 -0.5406,2.43858 -1.28746,4.41772 -2.24059,5.93741 -0.93894,1.50202 -2.04856,2.57993 -3.32889,3.23376 -1.28036,0.65381 -2.64605,0.98072 -4.0971,0.98072 -1.4653,0 -2.83099,-0.32691 -4.0971,-0.98072 -1.26612,-0.65383 -2.36864,-1.73174 -3.30755,-3.23376 -0.92469,-1.50203 -1.65734,-3.47232 -2.19792,-5.9109 -0.52637,-2.45624 -0.78955,-5.48678 -0.78955,-9.09165 0,-3.76387 0.26318,-6.87393 0.78955,-9.3302 0.54058,-2.47388 1.28034,-4.44419 2.21925,-5.91089 0.93892,-1.46665 2.04855,-2.49156 3.32891,-3.07473 1.28032,-0.60077 2.67448,-0.90117 4.18245,-0.90122 1.43681,5e-5 2.78117,0.30045 4.03307,0.90122 1.26611,0.58317 2.36862,1.60808 3.30756,3.07473 0.93889,1.4667 1.67865,3.43701 2.21926,5.91089 0.54057,2.45627 0.81086,5.56633 0.81088,9.3302 m -3.90505,0 c -10e-6,-2.96868 -0.14227,-5.43376 -0.42677,-7.39524 -0.28454,-1.9791 -0.7042,-3.55182 -1.25901,-4.71812 -0.55483,-1.18391 -1.23768,-2.01443 -2.04855,-2.49158 -0.79667,-0.49475 -1.70714,-0.74215 -2.73139,-0.74218 -1.0812,3e-5 -2.03433,0.24743 -2.85943,0.74218 -0.82512,0.49481 -1.5222,1.33418 -2.09123,2.5181 -0.55483,1.16629 -0.97449,2.73899 -1.25901,4.71809 -0.28453,1.9615 -0.42678,4.41774 -0.42678,7.36875 0,2.8627 0.14225,5.27476 0.42678,7.23621 0.29874,1.96147 0.72552,3.54301 1.28035,4.74463 0.56903,1.18394 1.25898,2.04097 2.06989,2.57109 0.81087,0.51245 1.73555,0.76868 2.77407,0.76868 1.01003,0 1.92049,-0.25623 2.7314,-0.76868 0.81087,-0.53012 1.49372,-1.38715 2.04854,-2.57109 0.56903,-1.20162 1.00292,-2.78316 1.30169,-4.74463 0.31295,-1.96145 0.46944,-4.37351 0.46945,-7.23621 m -20.63486,8.37597 c -10e-6,1.71409 -0.22763,3.24261 -0.68285,4.58559 -0.44103,1.34299 -1.09542,2.48276 -1.96319,3.41931 -0.85358,0.91889 -1.92052,1.62571 -3.20086,2.1205 -1.26612,0.47711 -2.71719,0.71566 -4.35316,0.71566 -1.86362,0 -3.43559,-0.28273 -4.71593,-0.8482 -1.26612,-0.58314 -2.31174,-1.34298 -3.13684,-2.27953 -0.82511,-0.95422 -1.44395,-2.03215 -1.8565,-3.23376 -0.41256,-1.21929 -0.68286,-2.47391 -0.81088,-3.76389 l 3.96907,-0.45061 c 0.11379,0.98958 0.32007,1.89078 0.61883,2.70363 0.31295,0.81287 0.73263,1.51087 1.259,2.094 0.52636,0.58314 1.17364,1.03376 1.94186,1.35181 0.76819,0.31809 1.67865,0.47712 2.73139,0.47711 1.93473,10e-6 3.4498,-0.59195 4.54522,-1.77591 1.10961,-1.18393 1.66443,-2.94217 1.66444,-5.27474 -10e-6,-1.37831 -0.24896,-2.48274 -0.74686,-3.31328 -0.48371,-0.84819 -1.09542,-1.50201 -1.83516,-1.96147 -0.72555,-0.47709 -1.5222,-0.79516 -2.38998,-0.95422 -0.85357,-0.15901 -1.64311,-0.23854 -2.36863,-0.23856 l -2.17658,0 0,-4.13496 2.09123,0 c 0.72551,10e-6 1.47949,-0.0884 2.26194,-0.26508 0.78241,-0.19435 1.49371,-0.5301 2.13389,-1.00724 0.65439,-0.49475 1.18787,-1.15741 1.60044,-1.98797 0.42676,-0.83049 0.64015,-1.89075 0.64017,-3.18074 -2e-5,-1.99677 -0.47659,-3.56948 -1.42972,-4.71811 -0.93894,-1.16625 -2.3402,-1.74938 -4.20379,-1.74942 -1.69291,4e-5 -3.06573,0.539 -4.11844,1.61688 -1.03851,1.07796 -1.64311,2.59766 -1.81381,4.55908 l -3.86237,-0.37109 c 0.15648,-1.64336 0.51925,-3.07469 1.08828,-4.29401 0.56905,-1.21925 1.28745,-2.2265 2.15525,-3.02171 0.882,-0.81282 1.88494,-1.41363 3.00881,-1.80242 1.12385,-0.4064 2.31882,-0.60961 3.58495,-0.60966 1.67867,5e-5 3.12261,0.26511 4.33183,0.79519 1.2092,0.5125 2.19791,1.21932 2.96614,2.1205 0.76817,0.88358 1.33011,1.92615 1.68578,3.12774 0.36985,1.20165 0.55479,2.48278 0.55481,3.84341 -2e-5,1.09561 -0.12094,2.12053 -0.36276,3.07473 -0.24186,0.95425 -0.61885,1.81128 -1.13097,2.5711 -0.51215,0.75987 -1.16655,1.41368 -1.9632,1.96146 -0.78244,0.54782 -1.72848,0.96309 -2.83809,1.2458 l 0,0.10594 c 1.2092,0.15906 2.26192,0.50364 3.15818,1.03375 0.89623,0.51247 1.63597,1.15746 2.21927,1.93495 0.58324,0.77754 1.01714,1.66108 1.30167,2.65063 0.29873,0.98958 0.44811,2.03215 0.44812,3.12773 M 390.30431,164.39392 c -10e-6,1.87312 -0.25358,3.58718 -0.76071,5.14221 -0.50716,1.55503 -1.25995,2.89802 -2.25838,4.02895 -0.99846,1.11325 -2.24254,1.97912 -3.73226,2.5976 -1.4739,0.61848 -3.18552,0.92772 -5.13483,0.92772 -1.75916,0 -3.29644,-0.22972 -4.61184,-0.68917 -1.29957,-0.45944 -2.40102,-1.08675 -3.30437,-1.88194 -0.90335,-0.81285 -1.62444,-1.75823 -2.16327,-2.83616 -0.523,-1.07792 -0.89543,-2.23535 -1.11731,-3.47232 l 4.32658,-0.55662 c 0.17432,0.70683 0.41997,1.396 0.73694,2.06748 0.31695,0.65382 0.74486,1.2458 1.28371,1.77592 0.55467,0.51245 1.22823,0.92771 2.02066,1.24579 0.80825,0.30041 1.7829,0.45061 2.92399,0.45061 1.10936,0 2.11573,-0.18554 3.01909,-0.55664 0.90334,-0.38876 1.67197,-0.95422 2.30592,-1.69639 0.64976,-0.74217 1.14898,-1.65222 1.49767,-2.73015 0.34863,-1.0779 0.52297,-2.31487 0.52298,-3.71087 -10e-6,-1.14859 -0.16642,-2.20001 -0.49922,-3.15425 -0.33283,-0.97187 -0.80828,-1.8024 -1.42633,-2.49158 -0.61811,-0.70682 -1.37882,-1.2546 -2.28216,-1.64338 -0.88751,-0.38873 -1.9018,-0.58311 -3.04287,-0.58313 -0.71317,2e-5 -1.37087,0.0707 -1.9731,0.21205 -0.60224,0.14137 -1.16486,0.33575 -1.68784,0.58312 -0.50715,0.24742 -0.97467,0.53899 -1.40257,0.87472 -0.41206,0.31809 -0.80034,0.65383 -1.16484,1.00723 l -4.18394,0 1.1173,-20.09172 19.04168,0 0,4.05546 -15.14301,0 -0.64186,11.84828 c 0.76072,-0.6538 1.71161,-1.21043 2.85269,-1.66989 1.14107,-0.47709 2.49609,-0.71565 4.06508,-0.71566 1.66404,1e-5 3.16171,0.28274 4.49298,0.84819 1.33123,0.56548 2.46438,1.3695 3.39944,2.41206 0.93503,1.02492 1.65613,2.25306 2.16329,3.68437 0.50713,1.43136 0.7607,3.00405 0.76071,4.71811 m -49.68426,12.16636 0,-3.36629 c 0.80826,-2.06748 1.79085,-3.88758 2.94778,-5.4603 1.17276,-1.59035 2.401,-3.02169 3.68471,-4.294 1.2837,-1.28995 2.55156,-2.48273 3.80359,-3.57833 1.26784,-1.09558 2.40891,-2.19117 3.42322,-3.28678 1.01427,-1.09557 1.83046,-2.24417 2.44855,-3.44581 0.63391,-1.20159 0.95088,-2.56224 0.95089,-4.08195 -10e-6,-1.06023 -0.14265,-1.98793 -0.42789,-2.78316 -0.28529,-0.81282 -0.69735,-1.49315 -1.23616,-2.04098 -0.53886,-0.54776 -1.18865,-0.95418 -1.94934,-1.21929 -0.74489,-0.2827 -1.57692,-0.42406 -2.4961,-0.4241 -0.85583,4e-5 -1.66408,0.13257 -2.42478,0.39759 -0.74489,0.2651 -1.41051,0.6627 -1.99688,1.19279 -0.5864,0.53016 -1.06976,1.1928 -1.45012,1.98797 -0.36452,0.77754 -0.60224,1.68759 -0.71317,2.73013 l -4.37411,-0.4506 c 0.14262,-1.34296 0.47544,-2.60641 0.99844,-3.79038 0.52298,-1.18392 1.24407,-2.21766 2.16328,-3.10124 0.91919,-0.90117 2.02064,-1.60801 3.30436,-2.1205 1.29955,-0.51241 2.7972,-0.76864 4.49298,-0.76868 1.66405,4e-5 3.14586,0.22093 4.44544,0.66266 1.29953,0.4418 2.39306,1.09563 3.28059,1.96146 0.90331,0.8659 1.59271,1.93499 2.06819,3.20725 0.47542,1.27233 0.71315,2.73902 0.71316,4.40003 -10e-6,1.25466 -0.20604,2.44744 -0.61808,3.57834 -0.39622,1.13096 -0.93506,2.20888 -1.61651,3.23377 -0.66566,1.02493 -1.44222,2.01449 -2.3297,2.96869 -0.88752,0.95424 -1.81464,1.89079 -2.78137,2.80966 -0.96675,0.90123 -1.94142,1.80244 -2.924,2.70364 -0.98261,0.88355 -1.90972,1.77592 -2.78136,2.67712 -0.85582,0.90122 -1.62447,1.82011 -2.30593,2.75665 -0.68148,0.9189 -1.2124,1.88196 -1.59275,2.88918 l 17.4727,0 0,4.05546 -22.17963,0 M 182.51678,137.28424 c -3e-5,1.87311 -0.2448,3.58719 -0.73432,5.1422 -0.48957,1.55504 -1.21624,2.89802 -2.18001,4.02894 -0.96382,1.11327 -2.16474,1.97913 -3.60276,2.59762 -1.42277,0.61847 -3.07499,0.9277 -4.95666,0.9277 -1.69813,0 -3.18207,-0.2297 -4.45182,-0.68915 -1.25448,-0.45943 -2.31771,-1.08675 -3.18971,-1.88194 -0.87202,-0.81285 -1.56808,-1.75824 -2.08822,-2.83616 -0.50485,-1.07791 -0.86436,-2.23535 -1.07854,-3.47231 l 4.17646,-0.55664 c 0.16827,0.70684 0.40539,1.39601 0.71136,2.06749 0.30596,0.65382 0.71902,1.2458 1.23917,1.77591 0.53543,0.51246 1.18561,0.92772 1.95054,1.24579 0.78021,0.30042 1.72106,0.45061 2.82254,0.45061 1.07087,0 2.04232,-0.18554 2.91434,-0.55663 0.87199,-0.38875 1.61396,-0.95422 2.2259,-1.69639 0.62723,-0.74218 1.10912,-1.65222 1.4457,-2.73014 0.33654,-1.07792 0.50482,-2.31487 0.50484,-3.71087 -2e-5,-1.14859 -0.16065,-2.20001 -0.48189,-3.15424 -0.32128,-0.97189 -0.78024,-1.80241 -1.37685,-2.49159 -0.59665,-0.70682 -1.33098,-1.2546 -2.20296,-1.64338 -0.85672,-0.38873 -1.83582,-0.58311 -2.93729,-0.58313 -0.68843,2e-5 -1.32332,0.0707 -1.90464,0.21204 -0.58135,0.14138 -1.12444,0.33576 -1.62928,0.58315 -0.48955,0.24739 -0.94085,0.53897 -1.35389,0.8747 -0.39777,0.31809 -0.77258,0.65384 -1.12444,1.00723 l -4.03875,0 1.07853,-20.0917 18.38095,0 0,4.05545 -14.61756,0 -0.61959,11.84827 c 0.73432,-0.6538 1.65222,-1.21042 2.7537,-1.66989 1.10147,-0.47709 2.40948,-0.71565 3.92404,-0.71568 1.6063,3e-5 3.05199,0.28276 4.33707,0.84821 1.28504,0.56548 2.37888,1.3695 3.2815,2.41206 0.90257,1.02494 1.59865,2.25304 2.08822,3.68436 0.48952,1.43137 0.73429,3.00406 0.73432,4.71811 m -32.86085,12.16634 0,-37.34723 4.38298,0 0,37.34723 -4.38298,0 m 154.47759,-42.09972 c -3e-5,3.58718 -0.30873,6.6089 -0.9261,9.06512 -0.60161,2.43858 -1.43272,4.41771 -2.49336,5.93738 -1.04486,1.50204 -2.27967,2.57995 -3.70442,3.23378 -1.4248,0.6538 -2.94455,0.98071 -4.55929,0.98071 -1.63059,0 -3.15035,-0.32691 -4.55928,-0.98071 -1.40896,-0.65383 -2.63585,-1.73174 -3.68067,-3.23378 -1.02901,-1.50201 -1.84431,-3.4723 -2.44587,-5.91087 -0.58575,-2.45623 -0.87862,-5.48678 -0.87861,-9.09163 -10e-6,-3.76387 0.29286,-6.87392 0.87861,-9.3302 0.60156,-2.47389 1.42477,-4.44417 2.46962,-5.91088 1.04482,-1.46664 2.27963,-2.49155 3.70441,-3.07472 1.42477,-0.60077 2.97619,-0.90118 4.65427,-0.90121 1.5989,3e-5 3.09492,0.30044 4.48805,0.90121 1.40892,0.58317 2.63581,1.60808 3.68066,3.07472 1.04482,1.46671 1.86802,3.43699 2.46962,5.91088 0.60155,2.45628 0.90233,5.56633 0.90236,9.3302 m -4.34557,0 c -2e-5,-2.96868 -0.15833,-5.43375 -0.47493,-7.39523 -0.31663,-1.97912 -0.78364,-3.55182 -1.40103,-4.71811 -0.61741,-1.18391 -1.3773,-2.01444 -2.27964,-2.49159 -0.88654,-0.49476 -1.89971,-0.74215 -3.03952,-0.74218 -1.20316,3e-5 -2.26382,0.24742 -3.182,0.74218 -0.9182,0.49481 -1.69391,1.33417 -2.32713,2.51808 -0.61742,1.16631 -1.08442,2.73901 -1.40103,4.71812 -0.31663,1.96149 -0.47494,4.41771 -0.47493,7.36873 -10e-6,2.86268 0.1583,5.27474 0.47493,7.23619 0.33244,1.96147 0.80736,3.54301 1.42478,4.74461 0.63321,1.18395 1.40101,2.04099 2.30338,2.57111 0.90235,0.51244 1.93135,0.76867 3.08702,0.76867 1.12397,0 2.13714,-0.25623 3.03952,-0.76867 0.90234,-0.53012 1.66222,-1.38716 2.27964,-2.57111 0.63321,-1.2016 1.11606,-2.78314 1.44853,-4.74461 0.34826,-1.96145 0.52239,-4.37351 0.52241,-7.23619 m -45.42662,18.68687 0,-3.36629 c 0.80737,-2.06747 1.78888,-3.88757 2.94453,-5.46027 1.17147,-1.59037 2.39837,-3.02169 3.68068,-4.29401 1.28229,-1.28996 2.54875,-2.48273 3.7994,-3.57835 1.26645,-1.09556 2.40628,-2.19116 3.41946,-3.28676 1.01317,-1.09557 1.82845,-2.24417 2.44587,-3.44581 0.63322,-1.20159 0.94983,-2.56225 0.94985,-4.08196 -2e-5,-1.06022 -0.1425,-1.98794 -0.42743,-2.78315 -0.28498,-0.81282 -0.69657,-1.49314 -1.2348,-2.04099 -0.53827,-0.54776 -1.18734,-0.95418 -1.94719,-1.21927 -0.74408,-0.28271 -1.57519,-0.42407 -2.49337,-0.4241 -0.85488,3e-5 -1.66225,0.13255 -2.42213,0.39759 -0.74405,0.26509 -1.40894,0.66268 -1.99468,1.19278 -0.58575,0.53015 -1.06859,1.19281 -1.44852,1.98797 -0.36412,0.77753 -0.60158,1.68759 -0.71239,2.73014 l -4.36932,-0.45061 c 0.14248,-1.34296 0.47493,-2.60642 0.99735,-3.79039 0.52241,-1.18391 1.24271,-2.21766 2.16091,-3.10123 0.91818,-0.90118 2.01842,-1.60801 3.30074,-2.12049 1.29811,-0.51243 2.79413,-0.76865 4.48804,-0.76868 1.66222,3e-5 3.14241,0.22091 4.44056,0.66265 1.2981,0.44181 2.39042,1.09563 3.27698,1.96146 0.90233,0.86591 1.59098,1.93499 2.06593,3.20725 0.4749,1.27233 0.71235,2.739 0.71238,4.40004 -3e-5,1.25465 -0.20583,2.44743 -0.6174,3.57833 -0.3958,1.13095 -0.93405,2.20888 -1.61474,3.23376 -0.66493,1.02494 -1.44064,2.01449 -2.32714,2.9687 -0.88655,0.95425 -1.81265,1.8908 -2.77831,2.80966 -0.96571,0.90122 -1.93931,1.80243 -2.9208,2.70363 -0.98152,0.88355 -1.90763,1.77593 -2.77831,2.67713 -0.85488,0.90122 -1.62267,1.82011 -2.30339,2.75665 -0.68073,0.91888 -1.21107,1.88194 -1.591,2.88917 l 17.45351,0 0,4.05545 -22.15527,0 M 122.65378,327.05145 c -2e-5,1.87313 -0.2905,3.58719 -0.87143,5.14222 -0.58098,1.55503 -1.44333,2.89802 -2.58705,4.02894 -1.14378,1.11328 -2.56894,1.97915 -4.27545,2.59762 -1.68842,0.61848 -3.64914,0.92772 -5.88215,0.92772 -2.0152,0 -3.77621,-0.22972 -5.28305,-0.68915 -1.48869,-0.45945 -2.75045,-1.08677 -3.785264,-1.88195 -1.034828,-0.81285 -1.86087,-1.75825 -2.478127,-2.83617 -0.599111,-1.07792 -1.025755,-2.23535 -1.279914,-3.47232 l 4.956255,-0.55664 c 0.19969,0.70685 0.48109,1.39602 0.8442,2.06748 0.36308,0.65383 0.85327,1.24581 1.47054,1.77593 0.6354,0.51245 1.40697,0.92773 2.31472,1.24579 0.92589,0.30042 2.0424,0.45061 3.34957,0.45061 1.27081,0 2.42364,-0.18555 3.45848,-0.55663 1.0348,-0.38875 1.91531,-0.95422 2.64153,-1.69641 0.74431,-0.74216 1.31619,-1.6522 1.71561,-2.73013 0.39939,-1.07792 0.59909,-2.31487 0.59911,-3.71089 -2e-5,-1.14858 -0.19065,-2.20001 -0.57187,-3.15423 -0.38128,-0.97188 -0.92592,-1.80241 -1.63393,-2.49159 -0.70806,-0.70682 -1.57949,-1.25461 -2.61429,-1.6434 -1.01669,-0.38873 -2.17859,-0.58311 -3.48572,-0.58313 -0.81698,2e-5 -1.5704,0.0707 -2.26026,0.21205 -0.68991,0.14139 -1.33439,0.33577 -1.93349,0.58314 -0.58097,0.2474 -1.11653,0.53897 -1.6067,0.87471 -0.47203,0.31809 -0.91682,0.65383 -1.33438,1.00723 l -4.792855,0 1.279905,-20.09174 21.81297,0 0,4.05545 -17.3469,0 -0.73526,11.8483 c 0.87142,-0.6538 1.96071,-1.21043 3.26785,-1.66989 1.30715,-0.47709 2.85938,-0.71565 4.65672,-0.71566 1.90623,10e-6 3.62185,0.28274 5.14687,0.84819 1.52498,0.56548 2.82305,1.3695 3.89421,2.41207 1.0711,1.02493 1.89714,2.25305 2.47812,3.68437 0.58093,1.43136 0.87141,3.00405 0.87143,4.71811 m 11.93446,-123.58457 c -3e-5,3.5872 -0.35404,6.60891 -1.06205,9.06515 -0.68991,2.43858 -1.64303,4.4177 -2.85937,5.93739 -1.19824,1.50203 -2.61431,2.57994 -4.24823,3.23375 -1.63394,0.65383 -3.3768,0.98074 -5.22857,0.98074 -1.86996,0 -3.61281,-0.32691 -5.22857,-0.98074 -1.61579,-0.65381 -3.02278,-1.73172 -4.221,-3.23375 -1.18006,-1.50201 -2.11503,-3.47231 -2.8049,-5.91089 -0.67173,-2.45624 -1.00759,-5.48678 -1.00759,-9.09165 0,-3.76386 0.33586,-6.87392 1.00759,-9.33019 0.68987,-2.47389 1.63393,-4.4442 2.83214,-5.9109 1.19821,-1.46665 2.61428,-2.49156 4.24821,-3.07473 1.63393,-0.60076 3.41309,-0.90117 5.33752,-0.90121 1.83361,4e-5 3.54923,0.30045 5.14687,0.90121 1.61575,0.58317 3.02274,1.60808 4.22098,3.07473 1.19819,1.4667 2.14224,3.43701 2.83214,5.9109 0.68986,2.45627 1.0348,5.56633 1.03483,9.33019 m -4.98348,0 c -3e-5,-2.96868 -0.18157,-5.43376 -0.54465,-7.39524 -0.36312,-1.9791 -0.89867,-3.55181 -1.6067,-4.71811 -0.70805,-1.18392 -1.57948,-2.01444 -2.61428,-2.49159 -1.01668,-0.49476 -2.17859,-0.74214 -3.48571,-0.74219 -1.37978,5e-5 -2.59615,0.24743 -3.64912,0.74219 -1.05299,0.49481 -1.94256,1.33417 -2.66875,2.51808 -0.70804,1.16631 -1.24361,2.73901 -1.6067,4.71812 -0.3631,1.96149 -0.54465,4.41774 -0.54464,7.36874 -10e-6,2.86269 0.18154,5.27476 0.54464,7.23621 0.38125,1.96147 0.92589,3.54302 1.63394,4.74461 0.72617,1.18396 1.60669,2.04099 2.64151,2.57111 1.03482,0.51246 2.21487,0.76869 3.54018,0.76869 1.28898,0 2.45088,-0.25623 3.48573,-0.76869 1.03479,-0.53012 1.90622,-1.38715 2.61427,-2.57111 0.72618,-1.20159 1.2799,-2.78314 1.66118,-4.74461 0.39937,-1.96145 0.59907,-4.37352 0.5991,-7.23621 m -34.176368,18.68691 0,-37.34731 5.201338,0 0,37.34731 -5.201338,0 m 356.062498,143.24826 -2.99999,5.19616 -25.98081,-14.99998 2.99999,-5.19617 z m 13.32298,-28.27154 -2.24764,5.56311 -27.81556,-11.23819 2.24764,-5.56312 z m 9.25925,-29.85078 -1.45153,5.82179 -29.10893,-7.25765 1.45153,-5.82179 z m 5.01429,-30.84864 -0.62717,5.96715 -29.83571,-3.13585 0.62717,-5.96715 z m -3.00992,-62.28236 1.0419,5.90886 -29.54432,5.20948 -1.04189,-5.90886 z m -7.96761,-30.22228 1.85411,5.70635 -28.53168,9.27053 -1.85411,-5.70633 z m -12.09394,-28.81784 2.63024,5.39277 -26.96388,13.15119 -2.63024,-5.39277 z m -15.98851,-26.8554 3.35518,4.97424 -24.87114,16.77583 -3.35516,-4.97423 z m -42.34072,-45.7758 4.59628,3.85672 -19.28364,22.98138 -4.59627,-3.85673 z m -25.52879,-18.03019 5.08829,3.17952 -15.89758,25.44144 -5.08828,-3.17951 z m -27.92419,-13.89655 5.48127,2.4404 -12.20209,27.40643 -5.48128,-2.44042 z m -29.37456,-10.70026 5.76757,1.65382 -8.26912,28.83788 -5.76756,-1.65383 z m -233.526685,356.42232 -3.693972,-4.72807 23.640357,-18.46986 3.69397,4.72807 z m -17.822608,-25.67396 -2.999999,-5.19616 25.980816,-15 2.999997,5.19617 z m -24.130627,-57.49675 -1.451531,-5.82179 29.108927,-7.25765 1.451531,5.82181 z m -5.838671,-30.70354 -0.627169,-5.96714 29.835707,-3.13585 0.627169,5.96715 z m -1.508991,-31.21718 0.209402,-5.99637 29.981793,1.047 -0.209402,5.99638 z m 2.850422,-31.12343 1.041897,-5.90886 29.544316,5.20948 -1.041896,5.90887 z m 18.472892,-59.55605 2.63024,-5.39278 26.963873,13.15118 -2.63024,5.39279 z m 15.263015,-27.27368 3.355169,-4.97423 24.871142,16.77584 -3.355173,4.97422 z m 18.910133,-24.88407 4.014788,-4.45887 22.294302,20.07392 -4.01479,4.45886 z m 22.18938,-22.00947 4.59628,-3.85674 19.28363,22.98139 -4.59627,3.85672 z m 52.43302,-33.74842 5.48127,-2.44042 12.2021,27.4064 -5.48128,2.44042 z m 29.22312,-11.08166 5.76757,-1.65383 8.26912,28.83788 -5.76758,1.65382 z m 30.48077,-6.90702 5.9416,-0.83504 4.17519,29.70803 -5.94159,0.83504 z M 252.99997,32 l 6,0 0,30 -6,0 z m -203.19112,311.62097 -2.996849,-7.41746 37.087391,-14.98425 2.99685,7.41747 z m -8.082015,-153.03649 2.472145,-7.60844 38.042246,12.36072 -2.472144,7.60844 z m 92.178785,-122.42752 6.78439,-4.23935 21.19676,33.92192 -6.78438,4.23935 z m 301.07196,322.5994 -4.92529,6.30411 -31.52048,-24.62647 4.9253,-6.3041 z m 44.74733,-146.57109 0.2792,7.99515 -39.97572,1.39601 -0.2792,-7.99515 z m -59.93747,-141.04368 5.35304,5.94514 -29.72573,26.76522 -5.35304,-5.94515 z m -136.57413,-69.51831 7.92215,1.11338 -5.56692,39.61071 -7.92214,-1.11338 z"
       id="path5887"
       style="font-size:16.85053635px;font-style:normal;font-variant:normal;font-weight:normal;font-stretch:normal;text-align:start;line-height:125%;text-anchor:start;color:#000000;fill:#ffffff;fill-opacity:1;fill-rule:nonzero;stroke:none;stroke-width:11.87260437;marker:none;visibility:visible;font-family:Arial Black"
       inkscape:connector-curvature="0" />
  </g>
  <g
     inkscape:groupmode="layer"
     id="Right"
     inkscape:label="Right"
     style="display:inline">
    <path
       inkscape:connector-curvature="0"
       style="color:#000000;fill:#ffffff;fill-opacity:1;fill-rule:nonzero;stroke:none;stroke-width:15;marker:none"
       id="path16097"
       d="m 247.63245,87.578025 0,76.442545 -5.42791,6.78483 0,27.36553 5.42791,8.92524 0,50.78137 16.50989,0 0,-51.33864 5.4279,-8.36797 0,-27.36553 -5.4279,-6.78483 0,-76.442545 -8.81113,-17.857301 -7.69876,17.857301 z" />
    <path
       d="m 260.42466,196.23169 -4.05059,-8.48446 -4.28593,0 0,8.48446 -3.65421,0 0,-22.34504 8.72053,0 c 1.09005,2e-5 2.03974,0.1586 2.84903,0.47576 0.81754,0.30662 1.49883,0.75067 2.04388,1.33214 0.54501,0.57094 0.94966,1.26872 1.21393,2.09336 0.27251,0.8141 0.40877,1.73391 0.40879,2.75942 -2e-5,0.83525 -0.0991,1.60176 -0.29729,2.29954 -0.18996,0.68722 -0.45835,1.30043 -0.80517,1.83961 -0.3386,0.53921 -0.74324,0.99383 -1.21394,1.36387 -0.47072,0.35947 -0.98272,0.62378 -1.53601,0.79293 l 4.71949,9.38841 -4.11251,0 m -0.43356,-15.49405 c -1e-5,-1.08895 -0.28078,-1.89775 -0.84231,-2.42639 -0.55331,-0.52861 -1.34609,-0.79292 -2.37833,-0.79294 l -4.68232,0 0,6.59725 4.78143,0 c 0.54501,2e-5 1.01159,-0.0793 1.39972,-0.23787 0.39639,-0.16915 0.71845,-0.40175 0.96621,-0.69779 0.25599,-0.30659 0.44591,-0.66606 0.5698,-1.0784 0.12386,-0.41231 0.18579,-0.86693 0.1858,-1.36386 m 13.83589,159.91496 c 0,9.84525 -7.9812,17.8264 -17.8265,17.8264 -9.8453,0 -17.82649,-7.98115 -17.82649,-17.8264 0,-9.84526 7.98119,-17.8264 17.82649,-17.8264 9.8453,0 17.8265,7.98114 17.8265,17.8264 z m 0,-82.77507 c 0,9.84524 -7.9812,17.82639 -17.8265,17.82639 -9.8453,0 -17.82649,-7.98115 -17.82649,-17.82639 0,-9.84526 7.98119,-17.82642 17.82649,-17.82642 9.8453,0 17.8265,7.98116 17.8265,17.82642 z m -26.0296,-3e-5 16.18002,0 c 0.0914,0 0.16494,0.0737 0.16494,0.16493 l 0,78.6004 c 0,0.0913 -0.0736,0.16493 -0.16494,0.16493 l -16.18002,0 c -0.0914,0 -0.16493,-0.0737 -0.16493,-0.16493 l 0,-78.6004 c 0,-0.0913 0.0736,-0.16493 0.16493,-0.16493 z"
       id="path5955"
       style="marker:none"
       inkscape:connector-curvature="0" />
  </g>
  <g
     inkscape:groupmode="layer"
     id="Left"
     inkscape:label="Left"
     sodipodi:insensitive="true">
    <path
       style="color:#000000;fill:#ffffff;fill-opacity:1;fill-rule:nonzero;stroke:none;stroke-width:15;marker:none"
       d="m 247.74504,87.576306 0,36.638374 -5.42788,6.78488 0,27.3657 5.42788,8.92529 0,90.58633 16.50989,0 0,-91.1436 5.42791,-8.36802 0,-27.3657 -5.42791,-6.78488 0,-36.638374 -8.81113,-17.857412 -7.69876,17.857412 z"
       id="path10600"
       sodipodi:nodetypes="cccccccccccccc"
       inkscape:connector-curvature="0" />
    <path
       inkscape:connector-curvature="0"
       d="m 249.32902,156.87843 0,-22.34519 3.6542,0 0,18.72936 9.36466,0 0,3.61583 -13.01886,0 m 24.49748,183.77404 c 0,9.8453 -7.98121,17.82651 -17.82651,17.82651 -9.84529,0 -17.82649,-7.98121 -17.82649,-17.82651 0,-9.84532 7.9812,-17.82653 17.82649,-17.82653 9.8453,0 17.82651,7.98121 17.82651,17.82653 z m 0,-82.77559 c 0,9.84531 -7.98121,17.82651 -17.82651,17.82651 -9.84529,0 -17.82649,-7.9812 -17.82649,-17.82651 0,-9.84531 7.9812,-17.82653 17.82649,-17.82653 9.8453,0 17.82651,7.98122 17.82651,17.82653 z m -26.02959,-2e-5 16.18002,0 c 0.0914,0 0.16493,0.0735 0.16493,0.16493 l 0,78.60089 c 0,0.0914 -0.0736,0.16493 -0.16493,0.16493 l -16.18002,0 c -0.0914,0 -0.16493,-0.0736 -0.16493,-0.16493 l 0,-78.60089 c 0,-0.0914 0.0736,-0.16493 0.16493,-0.16493 z"
       style="marker:none"
       id="path6389" />
  </g>
</svg>
