<?xml version="1.0" encoding="UTF-8" standalone="no"?>
<!-- Created with Inkscape (http://www.inkscape.org/) -->

<svg
   xmlns:dc="http://purl.org/dc/elements/1.1/"
   xmlns:cc="http://creativecommons.org/ns#"
   xmlns:rdf="http://www.w3.org/1999/02/22-rdf-syntax-ns#"
   xmlns:svg="http://www.w3.org/2000/svg"
   xmlns="http://www.w3.org/2000/svg"
   xmlns:sodipodi="http://sodipodi.sourceforge.net/DTD/sodipodi-0.dtd"
   xmlns:inkscape="http://www.inkscape.org/namespaces/inkscape"
   width="744.09448819"
   height="1052.3622047"
   id="svg2"
   version="1.1"
   inkscape:version="0.48.3.1 r9886"
   sodipodi:docname="drawing.svg">
  <defs
     id="defs4" />
  <sodipodi:namedview
     id="base"
     pagecolor="#ffffff"
     bordercolor="#666666"
     borderopacity="1.0"
     inkscape:pageopacity="0.0"
     inkscape:pageshadow="2"
     inkscape:zoom="1.4142136"
     inkscape:cx="330.99341"
     inkscape:cy="846.37685"
     inkscape:document-units="px"
     inkscape:current-layer="layer1"
     showgrid="true"
     inkscape:window-width="1280"
     inkscape:window-height="977"
     inkscape:window-x="-2"
     inkscape:window-y="-3"
     inkscape:window-maximized="1"
     showguides="true"
     inkscape:guide-bbox="true"
     inkscape:snap-from-guide="true">
    <inkscape:grid
       type="xygrid"
       id="grid2995"
       empspacing="10"
       visible="true"
       enabled="true"
       snapvisiblegridlinesonly="false"
       units="mm"
       spacingx="0.6mm"
       spacingy="0.6mm"
       empcolor="#7b00ff"
       empopacity="0.25098039"
       color="#0000ff"
       opacity="0.1254902"
       dotted="false"
       originx="2mm"
       originy="2mm" />
  </sodipodi:namedview>
  <metadata
     id="metadata7">
    <rdf:RDF>
      <cc:Work
         rdf:about="">
        <dc:format>image/svg+xml</dc:format>
        <dc:type
           rdf:resource="http://purl.org/dc/dcmitype/StillImage" />
        <dc:title />
      </cc:Work>
    </rdf:RDF>
  </metadata>
  <g
     inkscape:label="Layer 1"
     inkscape:groupmode="layer"
     id="layer1">
    <path
       style="fill:#000000"
       d="m 155.90551,173.62203 10.62992,0 0,106.29921 31.88977,0 0,21.25984 -42.51969,0 z"
       id="path3045"
       inkscape:connector-curvature="0"
       sodipodi:nodetypes="ccccccc" />
    <path
       style="fill:#000000"
       d="m 219.68504,173.62203 c -0.0122,42.77085 -0.0505,84.78822 0,127.55905 l 10.62992,0 0,-53.14961 10.62992,0 10.62992,53.14961 10.62992,0 -10.62992,-53.14961 10.62992,0 0,-74.40944 z m 10.62992,21.25984 21.25984,0 0,31.88976 -21.25984,0 z"
       id="path3043"
       inkscape:connector-curvature="0"
       sodipodi:nodetypes="cccccccccccccccc" />
    <path
       style="fill:#000000"
       d="m 283.46457,173.62203 42.51968,0 0,29.76377 -10.62992,0 0,-8.50393 -21.25984,0 0,85.03937 21.25984,0 0,-8.50394 10.62992,0 0,29.76378 -42.51968,0 z"
       id="path3039"
       inkscape:connector-curvature="0"
       sodipodi:nodetypes="ccccccccccccc" />
    <path
       style="fill:#000000"
       d="m 92.125984,301.18108 0,-21.25984 17.007876,0 0,-85.03937 -4.25197,0 0,-17.00788 4.25197,-4.25196 10.62992,0 0,106.29921 14.88189,0 0,21.25984 z"
       id="path3037"
       inkscape:connector-curvature="0"
       sodipodi:nodetypes="cccccccccccc" />
    <path
       style="fill:#000000"
       d="m 379.13386,-2.8346678 -31.88977,27.6377948 0,106.299213 42.51969,0 0,-78.661417 -31.88976,0 0,-23.385827 21.25984,-19.1338583 z m -21.25984,76.5354328 21.25984,0 0,36.141735 -21.25984,0 z"
       id="path3025"
       inkscape:connector-curvature="0"
       sodipodi:nodetypes="cccccccccccccc" />
    <path
       style="fill:#000000"
       d="m 538.58268,3.543285 0,80.5 31.88976,0.287402 0,21.259843 -21.25984,17.00787 0,14.88189 31.88976,-25.51181 0,-108.425195 z m 10.62992,21.259842 21.25984,0 0,36.141733 -21.25984,0 z"
       id="path3021"
       inkscape:connector-curvature="0"
       sodipodi:nodetypes="cccccccccccccc" />
    <path
       style="fill:#000000"
       d="m 602.3622,3.543285 0,127.559055 42.51969,0 0,-127.559055 z m 10.62993,21.259842 21.25984,0 0,85.039373 -21.25984,0 z"
       id="path3017"
       inkscape:connector-curvature="0"
       sodipodi:nodetypes="cccccccccc" />
    <path
       style="fill:#000000"
       d="m 415.27559,131.10234 27.6378,-106.299213 -31.88977,0 0,-21.259842 48.89764,0 -34.01575,127.559055 z"
       id="path3013"
       inkscape:connector-curvature="0"
       sodipodi:nodetypes="ccccccc" />
    <path
       style="fill:#000000"
       d="m 474.80315,52.440923 10.62992,6.377953 -10.62992,6.377952 0,65.905512 42.51968,0 0,-65.905512 -10.62992,-6.377952 10.62992,-6.377953 0,-48.897638 -42.51968,0 z m 10.62992,-27.637796 21.25984,0 0,23.385827 -21.25984,0 z m 0,44.64567 21.25984,0 0,40.393703 -21.25984,0 z"
       id="path3011"
       inkscape:connector-curvature="0"
       sodipodi:nodetypes="ccccccccccccccccccccc" />
    <path
       style="fill:#000000"
       d="m 60.23622,131.10234 0,-106.299213 -4.251968,0 0,-17.0078735 4.251968,-4.2519685 10.629922,0 0,127.559065 z"
       id="path3005"
       inkscape:connector-curvature="0"
       sodipodi:nodetypes="cccccccc" />
    <path
       style="fill:#000000"
       d="m 92.125984,131.10234 0,-36.141732 31.889766,-51.023622 0,-19.133859 -21.25984,0 0,12.755906 -10.629926,0 0,-34.015748 42.519686,0 0,42.519685 -31.88976,51.023622 0,12.755908 31.88976,0 0,21.25984 z"
       id="path3003"
       inkscape:connector-curvature="0"
       sodipodi:nodetypes="ccccccccccccccc" />
    <path
       style="fill:#000000"
       d="m 155.90551,131.10234 0,-21.25984 31.88977,0 0,-31.889766 -19.13386,-23.385827 19.13386,-23.385827 0,-6.377953 -31.88977,0 0,-21.259842 42.51969,0 0,36.141732 -12.75591,14.88189 12.75591,14.88189 0,61.653543 z"
       id="path3001"
       inkscape:connector-curvature="0"
       sodipodi:nodetypes="ccccccccccccccc" />
    <path
       style="fill:#000000"
       d="m 251.5748,103.46455 -31.88976,0 0,-21.259845 21.25984,-78.6614172 10.62992,0 -21.25984,78.6614172 21.25984,0 0,-40.393701 10.62992,0 0,40.393701 10.62993,0 0,21.259845 -10.62993,0 0,27.63779 -10.62992,0 z"
       id="path2999"
       inkscape:connector-curvature="0"
       sodipodi:nodetypes="cccccccccccccccc" />
    <path
       style="fill:#000000"
       d="m 283.46457,109.8425 31.88976,0 0,-46.771656 -31.88976,0 0,-59.527559 42.51968,0 1e-5,21.767997 -31.88977,-0.508155 0,17.007875 31.88976,0 0,89.291338 -42.51968,0 z"
       id="path3050"
       inkscape:connector-curvature="0"
       sodipodi:nodetypes="ccccccccccccc" />
  </g>
</svg>
