<?xml version="1.0" encoding="UTF-8" standalone="no"?>
<svg
   height="32"
   width="32"
   id="svg2"
   version="1.1">
  <rect
     style="fill:#333333;fill-opacity:0.5;fill-rule:nonzero;stroke:#aa0000;stroke-width:1;stroke-miterlimit:4;stroke-opacity:1;stroke-dasharray:none"
     id="rect3761"
     width="31"
     height="31"
     x="0.5"
     y="0.5"
     ry="5" />
  <path
     style="fill:#000000;stroke:#ffffff;stroke-width:0.9564653"
     d="M 2.9436457,2.9352185 C 3.9567066,1.864477 5.4168024,2.8905647 6.1037095,3.8133618 8.0971508,5.8074223 10.090592,7.8014827 12.084035,9.7955433 17.099034,8.3580598 22.114034,6.920577 27.129033,5.4830935 27.926611,6.2809196 28.724189,7.0787448 29.521768,7.8765708 25.372845,10.180401 21.223923,12.48423 17.075,14.788059 c 1.663562,1.664078 3.327124,3.328156 4.990686,4.992234 1.318765,-0.202192 2.637532,-0.404386 3.956298,-0.606578 0.660861,0.661066 1.321721,1.322132 1.982581,1.983197 -1.517185,0.764944 -3.034368,1.529887 -4.551553,2.294832 -0.764629,1.517054 -1.529258,3.03411 -2.293885,4.551166 -0.660936,-0.661141 -1.321871,-1.322282 -1.982806,-1.983421 0.202206,-1.319251 0.404411,-2.638503 0.606618,-3.957753 -1.663563,-1.664079 -3.327125,-3.328157 -4.990687,-4.992235 -2.303322,4.150755 -4.606646,8.30151 -6.9099697,12.452267 C 7.0847039,28.723942 6.2871255,27.926115 5.4895472,27.128289 6.9269614,22.111356 8.3643764,17.094423 9.8017904,12.07749 7.4591979,9.7036759 5.0550051,7.3907294 2.7516511,4.978241 2.3271494,4.3654008 2.4013318,3.4541749 2.9436457,2.9352185 z"
     id="path4"
     inkscape:connector-curvature="0" />
  <text
     style="font-size:24px;font-style:normal;font-variant:normal;font-weight:bold;font-stretch:normal;line-height:125%;letter-spacing:0px;word-spacing:0px;fill:#ff0000;fill-opacity:1;stroke:none;font-family:Arial;-inkscape-font-specification:Sans Bold"
     x="8.59375"
     y="24.677734"
     id="text2987"><tspan
       x="8.59375"
       y="24.677734">?</tspan></text>
</svg>
